solid OpenSCAD_Model
  facet normal 0.740952 0.671558 0
    outer loop
      vertex 69.5709 57.0954 120
      vertex 63.6396 63.6396 -120
      vertex 63.6396 63.6396 120
    endloop
  endfacet
  facet normal 0.740952 0.671558 0
    outer loop
      vertex 63.6396 63.6396 -120
      vertex 69.5709 57.0954 120
      vertex 69.5709 57.0954 -120
    endloop
  endfacet
  facet normal 0.989177 0.146725 0
    outer loop
      vertex 89.5666 8.82154 120
      vertex 88.2707 17.5581 -120
      vertex 88.2707 17.5581 120
    endloop
  endfacet
  facet normal 0.989177 0.146725 0
    outer loop
      vertex 88.2707 17.5581 -120
      vertex 89.5666 8.82154 120
      vertex 89.5666 8.82154 -120
    endloop
  endfacet
  facet normal 0.998795 0.0490706 0
    outer loop
      vertex 90 0 120
      vertex 89.5666 8.82154 -120
      vertex 89.5666 8.82154 120
    endloop
  endfacet
  facet normal 0.998795 0.0490706 0
    outer loop
      vertex 89.5666 8.82154 -120
      vertex 90 0 120
      vertex 90 0 -120
    endloop
  endfacet
  facet normal 0.97003 0.242986 0
    outer loop
      vertex 88.2707 17.5581 120
      vertex 86.1246 26.1256 -120
      vertex 86.1246 26.1256 120
    endloop
  endfacet
  facet normal 0.97003 0.242986 0
    outer loop
      vertex 86.1246 26.1256 -120
      vertex 88.2707 17.5581 120
      vertex 88.2707 17.5581 -120
    endloop
  endfacet
  facet normal 0.336882 -0.941547 0
    outer loop
      vertex 26.1256 -86.1246 -120
      vertex 34.4415 -83.1492 120
      vertex 26.1256 -86.1246 120
    endloop
  endfacet
  facet normal 0.336882 -0.941547 0
    outer loop
      vertex 34.4415 -83.1492 120
      vertex 26.1256 -86.1246 -120
      vertex 34.4415 -83.1492 -120
    endloop
  endfacet
  facet normal 0.671558 0.740952 -0
    outer loop
      vertex 63.6396 63.6396 -120
      vertex 57.0954 69.5709 120
      vertex 63.6396 63.6396 120
    endloop
  endfacet
  facet normal 0.671558 0.740952 0
    outer loop
      vertex 57.0954 69.5709 120
      vertex 63.6396 63.6396 -120
      vertex 57.0954 69.5709 -120
    endloop
  endfacet
  facet normal 0.941547 0.336882 0
    outer loop
      vertex 86.1246 26.1256 120
      vertex 83.1492 34.4415 -120
      vertex 83.1492 34.4415 120
    endloop
  endfacet
  facet normal 0.941547 0.336882 0
    outer loop
      vertex 83.1492 34.4415 -120
      vertex 86.1246 26.1256 120
      vertex 86.1246 26.1256 -120
    endloop
  endfacet
  facet normal 0.0490706 -0.998795 0
    outer loop
      vertex 0 -90 -120
      vertex 8.82154 -89.5666 120
      vertex 0 -90 120
    endloop
  endfacet
  facet normal 0.0490706 -0.998795 0
    outer loop
      vertex 8.82154 -89.5666 120
      vertex 0 -90 -120
      vertex 8.82154 -89.5666 -120
    endloop
  endfacet
  facet normal -0.595703 -0.803204 0
    outer loop
      vertex -57.0954 -69.5709 -120
      vertex -50.0013 -74.8323 120
      vertex -57.0954 -69.5709 120
    endloop
  endfacet
  facet normal -0.595703 -0.803204 -0
    outer loop
      vertex -50.0013 -74.8323 120
      vertex -57.0954 -69.5709 -120
      vertex -50.0013 -74.8323 -120
    endloop
  endfacet
  facet normal 0.514099 -0.857731 0
    outer loop
      vertex 42.4257 -79.3729 -120
      vertex 50.0013 -74.8323 120
      vertex 42.4257 -79.3729 120
    endloop
  endfacet
  facet normal 0.514099 -0.857731 0
    outer loop
      vertex 50.0013 -74.8323 120
      vertex 42.4257 -79.3729 -120
      vertex 50.0013 -74.8323 -120
    endloop
  endfacet
  facet normal -0.242986 -0.97003 0
    outer loop
      vertex -26.1256 -86.1246 -120
      vertex -17.5581 -88.2707 120
      vertex -26.1256 -86.1246 120
    endloop
  endfacet
  facet normal -0.242986 -0.97003 -0
    outer loop
      vertex -17.5581 -88.2707 120
      vertex -26.1256 -86.1246 -120
      vertex -17.5581 -88.2707 -120
    endloop
  endfacet
  facet normal 0.857731 0.514099 0
    outer loop
      vertex 79.3729 42.4257 120
      vertex 74.8323 50.0013 -120
      vertex 74.8323 50.0013 120
    endloop
  endfacet
  facet normal 0.857731 0.514099 0
    outer loop
      vertex 74.8323 50.0013 -120
      vertex 79.3729 42.4257 120
      vertex 79.3729 42.4257 -120
    endloop
  endfacet
  facet normal -0.998795 -0.0490706 0
    outer loop
      vertex -89.5666 -8.82154 -120
      vertex -90 0 120
      vertex -90 0 -120
    endloop
  endfacet
  facet normal -0.998795 -0.0490706 0
    outer loop
      vertex -90 0 120
      vertex -89.5666 -8.82154 -120
      vertex -89.5666 -8.82154 120
    endloop
  endfacet
  facet normal -0.903987 -0.42756 0
    outer loop
      vertex -79.3729 -42.4257 -120
      vertex -83.1492 -34.4415 120
      vertex -83.1492 -34.4415 -120
    endloop
  endfacet
  facet normal -0.903987 -0.42756 0
    outer loop
      vertex -83.1492 -34.4415 120
      vertex -79.3729 -42.4257 -120
      vertex -79.3729 -42.4257 120
    endloop
  endfacet
  facet normal 0.903987 0.42756 0
    outer loop
      vertex 83.1492 34.4415 120
      vertex 79.3729 42.4257 -120
      vertex 79.3729 42.4257 120
    endloop
  endfacet
  facet normal 0.903987 0.42756 0
    outer loop
      vertex 79.3729 42.4257 -120
      vertex 83.1492 34.4415 120
      vertex 83.1492 34.4415 -120
    endloop
  endfacet
  facet normal 0.97003 -0.242986 0
    outer loop
      vertex 86.1246 -26.1256 120
      vertex 88.2707 -17.5581 -120
      vertex 88.2707 -17.5581 120
    endloop
  endfacet
  facet normal 0.97003 -0.242986 0
    outer loop
      vertex 88.2707 -17.5581 -120
      vertex 86.1246 -26.1256 120
      vertex 86.1246 -26.1256 -120
    endloop
  endfacet
  facet normal -0.514099 0.857731 0
    outer loop
      vertex -42.4257 79.3729 -120
      vertex -50.0013 74.8323 120
      vertex -42.4257 79.3729 120
    endloop
  endfacet
  facet normal -0.514099 0.857731 0
    outer loop
      vertex -50.0013 74.8323 120
      vertex -42.4257 79.3729 -120
      vertex -50.0013 74.8323 -120
    endloop
  endfacet
  facet normal -0.97003 -0.242986 0
    outer loop
      vertex -86.1246 -26.1256 -120
      vertex -88.2707 -17.5581 120
      vertex -88.2707 -17.5581 -120
    endloop
  endfacet
  facet normal -0.97003 -0.242986 0
    outer loop
      vertex -88.2707 -17.5581 120
      vertex -86.1246 -26.1256 -120
      vertex -86.1246 -26.1256 120
    endloop
  endfacet
  facet normal 0.242986 0.97003 -0
    outer loop
      vertex 26.1256 86.1246 -120
      vertex 17.5581 88.2707 120
      vertex 26.1256 86.1246 120
    endloop
  endfacet
  facet normal 0.242986 0.97003 0
    outer loop
      vertex 17.5581 88.2707 120
      vertex 26.1256 86.1246 -120
      vertex 17.5581 88.2707 -120
    endloop
  endfacet
  facet normal 0.941547 -0.336882 0
    outer loop
      vertex 83.1492 -34.4415 120
      vertex 86.1246 -26.1256 -120
      vertex 86.1246 -26.1256 120
    endloop
  endfacet
  facet normal 0.941547 -0.336882 0
    outer loop
      vertex 86.1246 -26.1256 -120
      vertex 83.1492 -34.4415 120
      vertex 83.1492 -34.4415 -120
    endloop
  endfacet
  facet normal 0.989177 -0.146725 0
    outer loop
      vertex 88.2707 -17.5581 120
      vertex 89.5666 -8.82154 -120
      vertex 89.5666 -8.82154 120
    endloop
  endfacet
  facet normal 0.989177 -0.146725 0
    outer loop
      vertex 89.5666 -8.82154 -120
      vertex 88.2707 -17.5581 120
      vertex 88.2707 -17.5581 -120
    endloop
  endfacet
  facet normal 0.146725 0.989177 -0
    outer loop
      vertex 17.5581 88.2707 -120
      vertex 8.82154 89.5666 120
      vertex 17.5581 88.2707 120
    endloop
  endfacet
  facet normal 0.146725 0.989177 0
    outer loop
      vertex 8.82154 89.5666 120
      vertex 17.5581 88.2707 -120
      vertex 8.82154 89.5666 -120
    endloop
  endfacet
  facet normal -0.42756 0.903987 0
    outer loop
      vertex -34.4415 83.1492 -120
      vertex -42.4257 79.3729 120
      vertex -34.4415 83.1492 120
    endloop
  endfacet
  facet normal -0.42756 0.903987 0
    outer loop
      vertex -42.4257 79.3729 120
      vertex -34.4415 83.1492 -120
      vertex -42.4257 79.3729 -120
    endloop
  endfacet
  facet normal -0.146725 0.989177 0
    outer loop
      vertex -8.82154 89.5666 -120
      vertex -17.5581 88.2707 120
      vertex -8.82154 89.5666 120
    endloop
  endfacet
  facet normal -0.146725 0.989177 0
    outer loop
      vertex -17.5581 88.2707 120
      vertex -8.82154 89.5666 -120
      vertex -17.5581 88.2707 -120
    endloop
  endfacet
  facet normal 0.42756 -0.903987 0
    outer loop
      vertex 34.4415 -83.1492 -120
      vertex 42.4257 -79.3729 120
      vertex 34.4415 -83.1492 120
    endloop
  endfacet
  facet normal 0.42756 -0.903987 0
    outer loop
      vertex 42.4257 -79.3729 120
      vertex 34.4415 -83.1492 -120
      vertex 42.4257 -79.3729 -120
    endloop
  endfacet
  facet normal -0.671558 0.740952 0
    outer loop
      vertex -57.0954 69.5709 -120
      vertex -63.6396 63.6396 120
      vertex -57.0954 69.5709 120
    endloop
  endfacet
  facet normal -0.671558 0.740952 0
    outer loop
      vertex -63.6396 63.6396 120
      vertex -57.0954 69.5709 -120
      vertex -63.6396 63.6396 -120
    endloop
  endfacet
  facet normal 0.857731 -0.514099 0
    outer loop
      vertex 74.8323 -50.0013 120
      vertex 79.3729 -42.4257 -120
      vertex 79.3729 -42.4257 120
    endloop
  endfacet
  facet normal 0.857731 -0.514099 0
    outer loop
      vertex 79.3729 -42.4257 -120
      vertex 74.8323 -50.0013 120
      vertex 74.8323 -50.0013 -120
    endloop
  endfacet
  facet normal -0.595703 0.803204 0
    outer loop
      vertex -50.0013 74.8323 -120
      vertex -57.0954 69.5709 120
      vertex -50.0013 74.8323 120
    endloop
  endfacet
  facet normal -0.595703 0.803204 0
    outer loop
      vertex -57.0954 69.5709 120
      vertex -50.0013 74.8323 -120
      vertex -57.0954 69.5709 -120
    endloop
  endfacet
  facet normal 0.903987 -0.42756 0
    outer loop
      vertex 79.3729 -42.4257 120
      vertex 83.1492 -34.4415 -120
      vertex 83.1492 -34.4415 120
    endloop
  endfacet
  facet normal 0.903987 -0.42756 0
    outer loop
      vertex 83.1492 -34.4415 -120
      vertex 79.3729 -42.4257 120
      vertex 79.3729 -42.4257 -120
    endloop
  endfacet
  facet normal 0.998795 -0.0490706 0
    outer loop
      vertex 89.5666 -8.82154 120
      vertex 90 0 -120
      vertex 90 0 120
    endloop
  endfacet
  facet normal 0.998795 -0.0490706 0
    outer loop
      vertex 90 0 -120
      vertex 89.5666 -8.82154 120
      vertex 89.5666 -8.82154 -120
    endloop
  endfacet
  facet normal -0.740952 0.671558 0
    outer loop
      vertex -69.5709 57.0954 -120
      vertex -63.6396 63.6396 120
      vertex -63.6396 63.6396 -120
    endloop
  endfacet
  facet normal -0.740952 0.671558 0
    outer loop
      vertex -63.6396 63.6396 120
      vertex -69.5709 57.0954 -120
      vertex -69.5709 57.0954 120
    endloop
  endfacet
  facet normal -0.941547 -0.336882 0
    outer loop
      vertex -83.1492 -34.4415 -120
      vertex -86.1246 -26.1256 120
      vertex -86.1246 -26.1256 -120
    endloop
  endfacet
  facet normal -0.941547 -0.336882 0
    outer loop
      vertex -86.1246 -26.1256 120
      vertex -83.1492 -34.4415 -120
      vertex -83.1492 -34.4415 120
    endloop
  endfacet
  facet normal 0.514099 0.857731 -0
    outer loop
      vertex 50.0013 74.8323 -120
      vertex 42.4257 79.3729 120
      vertex 50.0013 74.8323 120
    endloop
  endfacet
  facet normal 0.514099 0.857731 0
    outer loop
      vertex 42.4257 79.3729 120
      vertex 50.0013 74.8323 -120
      vertex 42.4257 79.3729 -120
    endloop
  endfacet
  facet normal 0.595703 0.803204 -0
    outer loop
      vertex 57.0954 69.5709 -120
      vertex 50.0013 74.8323 120
      vertex 57.0954 69.5709 120
    endloop
  endfacet
  facet normal 0.595703 0.803204 0
    outer loop
      vertex 50.0013 74.8323 120
      vertex 57.0954 69.5709 -120
      vertex 50.0013 74.8323 -120
    endloop
  endfacet
  facet normal 0.146725 -0.989177 0
    outer loop
      vertex 8.82154 -89.5666 -120
      vertex 17.5581 -88.2707 120
      vertex 8.82154 -89.5666 120
    endloop
  endfacet
  facet normal 0.146725 -0.989177 0
    outer loop
      vertex 17.5581 -88.2707 120
      vertex 8.82154 -89.5666 -120
      vertex 17.5581 -88.2707 -120
    endloop
  endfacet
  facet normal 0.740952 -0.671558 0
    outer loop
      vertex 63.6396 -63.6396 120
      vertex 69.5709 -57.0954 -120
      vertex 69.5709 -57.0954 120
    endloop
  endfacet
  facet normal 0.740952 -0.671558 0
    outer loop
      vertex 69.5709 -57.0954 -120
      vertex 63.6396 -63.6396 120
      vertex 63.6396 -63.6396 -120
    endloop
  endfacet
  facet normal 0.803204 -0.595703 0
    outer loop
      vertex 69.5709 -57.0954 120
      vertex 74.8323 -50.0013 -120
      vertex 74.8323 -50.0013 120
    endloop
  endfacet
  facet normal 0.803204 -0.595703 0
    outer loop
      vertex 74.8323 -50.0013 -120
      vertex 69.5709 -57.0954 120
      vertex 69.5709 -57.0954 -120
    endloop
  endfacet
  facet normal 0.242986 -0.97003 0
    outer loop
      vertex 17.5581 -88.2707 -120
      vertex 26.1256 -86.1246 120
      vertex 17.5581 -88.2707 120
    endloop
  endfacet
  facet normal 0.242986 -0.97003 0
    outer loop
      vertex 26.1256 -86.1246 120
      vertex 17.5581 -88.2707 -120
      vertex 26.1256 -86.1246 -120
    endloop
  endfacet
  facet normal -0.242986 0.97003 0
    outer loop
      vertex -17.5581 88.2707 -120
      vertex -26.1256 86.1246 120
      vertex -17.5581 88.2707 120
    endloop
  endfacet
  facet normal -0.242986 0.97003 0
    outer loop
      vertex -26.1256 86.1246 120
      vertex -17.5581 88.2707 -120
      vertex -26.1256 86.1246 -120
    endloop
  endfacet
  facet normal 0.803204 0.595703 0
    outer loop
      vertex 74.8323 50.0013 120
      vertex 69.5709 57.0954 -120
      vertex 69.5709 57.0954 120
    endloop
  endfacet
  facet normal 0.803204 0.595703 0
    outer loop
      vertex 69.5709 57.0954 -120
      vertex 74.8323 50.0013 120
      vertex 74.8323 50.0013 -120
    endloop
  endfacet
  facet normal 0.0490706 0.998795 -0
    outer loop
      vertex 8.82154 89.5666 -120
      vertex 0 90 120
      vertex 8.82154 89.5666 120
    endloop
  endfacet
  facet normal 0.0490706 0.998795 0
    outer loop
      vertex 0 90 120
      vertex 8.82154 89.5666 -120
      vertex 0 90 -120
    endloop
  endfacet
  facet normal -0.857731 0.514099 0
    outer loop
      vertex -79.3729 42.4257 -120
      vertex -74.8323 50.0013 120
      vertex -74.8323 50.0013 -120
    endloop
  endfacet
  facet normal -0.857731 0.514099 0
    outer loop
      vertex -74.8323 50.0013 120
      vertex -79.3729 42.4257 -120
      vertex -79.3729 42.4257 120
    endloop
  endfacet
  facet normal 0.42756 0.903987 -0
    outer loop
      vertex 42.4257 79.3729 -120
      vertex 34.4415 83.1492 120
      vertex 42.4257 79.3729 120
    endloop
  endfacet
  facet normal 0.42756 0.903987 0
    outer loop
      vertex 34.4415 83.1492 120
      vertex 42.4257 79.3729 -120
      vertex 34.4415 83.1492 -120
    endloop
  endfacet
  facet normal -0.857731 -0.514099 0
    outer loop
      vertex -74.8323 -50.0013 -120
      vertex -79.3729 -42.4257 120
      vertex -79.3729 -42.4257 -120
    endloop
  endfacet
  facet normal -0.857731 -0.514099 0
    outer loop
      vertex -79.3729 -42.4257 120
      vertex -74.8323 -50.0013 -120
      vertex -74.8323 -50.0013 120
    endloop
  endfacet
  facet normal -0.42756 -0.903987 0
    outer loop
      vertex -42.4257 -79.3729 -120
      vertex -34.4415 -83.1492 120
      vertex -42.4257 -79.3729 120
    endloop
  endfacet
  facet normal -0.42756 -0.903987 -0
    outer loop
      vertex -34.4415 -83.1492 120
      vertex -42.4257 -79.3729 -120
      vertex -34.4415 -83.1492 -120
    endloop
  endfacet
  facet normal -0.740952 -0.671558 0
    outer loop
      vertex -63.6396 -63.6396 -120
      vertex -69.5709 -57.0954 120
      vertex -69.5709 -57.0954 -120
    endloop
  endfacet
  facet normal -0.740952 -0.671558 0
    outer loop
      vertex -69.5709 -57.0954 120
      vertex -63.6396 -63.6396 -120
      vertex -63.6396 -63.6396 120
    endloop
  endfacet
  facet normal -0.336882 0.941547 0
    outer loop
      vertex -26.1256 86.1246 -120
      vertex -34.4415 83.1492 120
      vertex -26.1256 86.1246 120
    endloop
  endfacet
  facet normal -0.336882 0.941547 0
    outer loop
      vertex -34.4415 83.1492 120
      vertex -26.1256 86.1246 -120
      vertex -34.4415 83.1492 -120
    endloop
  endfacet
  facet normal -0.514099 -0.857731 0
    outer loop
      vertex -50.0013 -74.8323 -120
      vertex -42.4257 -79.3729 120
      vertex -50.0013 -74.8323 120
    endloop
  endfacet
  facet normal -0.514099 -0.857731 -0
    outer loop
      vertex -42.4257 -79.3729 120
      vertex -50.0013 -74.8323 -120
      vertex -42.4257 -79.3729 -120
    endloop
  endfacet
  facet normal 0.595703 -0.803204 0
    outer loop
      vertex 50.0013 -74.8323 -120
      vertex 57.0954 -69.5709 120
      vertex 50.0013 -74.8323 120
    endloop
  endfacet
  facet normal 0.595703 -0.803204 0
    outer loop
      vertex 57.0954 -69.5709 120
      vertex 50.0013 -74.8323 -120
      vertex 57.0954 -69.5709 -120
    endloop
  endfacet
  facet normal -0.0490706 0.998795 0
    outer loop
      vertex 0 90 -120
      vertex -8.82154 89.5666 120
      vertex 0 90 120
    endloop
  endfacet
  facet normal -0.0490706 0.998795 0
    outer loop
      vertex -8.82154 89.5666 120
      vertex 0 90 -120
      vertex -8.82154 89.5666 -120
    endloop
  endfacet
  facet normal -0.97003 0.242986 0
    outer loop
      vertex -88.2707 17.5581 -120
      vertex -86.1246 26.1256 120
      vertex -86.1246 26.1256 -120
    endloop
  endfacet
  facet normal -0.97003 0.242986 0
    outer loop
      vertex -86.1246 26.1256 120
      vertex -88.2707 17.5581 -120
      vertex -88.2707 17.5581 120
    endloop
  endfacet
  facet normal -0.941547 0.336882 0
    outer loop
      vertex -86.1246 26.1256 -120
      vertex -83.1492 34.4415 120
      vertex -83.1492 34.4415 -120
    endloop
  endfacet
  facet normal -0.941547 0.336882 0
    outer loop
      vertex -83.1492 34.4415 120
      vertex -86.1246 26.1256 -120
      vertex -86.1246 26.1256 120
    endloop
  endfacet
  facet normal 0.336882 0.941547 -0
    outer loop
      vertex 34.4415 83.1492 -120
      vertex 26.1256 86.1246 120
      vertex 34.4415 83.1492 120
    endloop
  endfacet
  facet normal 0.336882 0.941547 0
    outer loop
      vertex 26.1256 86.1246 120
      vertex 34.4415 83.1492 -120
      vertex 26.1256 86.1246 -120
    endloop
  endfacet
  facet normal -0.803204 -0.595703 0
    outer loop
      vertex -69.5709 -57.0954 -120
      vertex -74.8323 -50.0013 120
      vertex -74.8323 -50.0013 -120
    endloop
  endfacet
  facet normal -0.803204 -0.595703 0
    outer loop
      vertex -74.8323 -50.0013 120
      vertex -69.5709 -57.0954 -120
      vertex -69.5709 -57.0954 120
    endloop
  endfacet
  facet normal -0.989177 -0.146725 0
    outer loop
      vertex -88.2707 -17.5581 -120
      vertex -89.5666 -8.82154 120
      vertex -89.5666 -8.82154 -120
    endloop
  endfacet
  facet normal -0.989177 -0.146725 0
    outer loop
      vertex -89.5666 -8.82154 120
      vertex -88.2707 -17.5581 -120
      vertex -88.2707 -17.5581 120
    endloop
  endfacet
  facet normal -0.903987 0.42756 0
    outer loop
      vertex -83.1492 34.4415 -120
      vertex -79.3729 42.4257 120
      vertex -79.3729 42.4257 -120
    endloop
  endfacet
  facet normal -0.903987 0.42756 0
    outer loop
      vertex -79.3729 42.4257 120
      vertex -83.1492 34.4415 -120
      vertex -83.1492 34.4415 120
    endloop
  endfacet
  facet normal 0 0 -1
    outer loop
      vertex 85.5 0 -120
      vertex 90 0 -120
      vertex 89.5666 -8.82154 -120
    endloop
  endfacet
  facet normal 0 0 -1
    outer loop
      vertex 85.0883 -8.38046 -120
      vertex 89.5666 -8.82154 -120
      vertex 88.2707 -17.5581 -120
    endloop
  endfacet
  facet normal 0 0 -1
    outer loop
      vertex 90 0 -120
      vertex 85.5 0 -120
      vertex 89.5666 8.82154 -120
    endloop
  endfacet
  facet normal 0 0 -1
    outer loop
      vertex 83.8571 -16.6802 -120
      vertex 88.2707 -17.5581 -120
      vertex 86.1246 -26.1256 -120
    endloop
  endfacet
  facet normal 0 0 -1
    outer loop
      vertex 85.0883 8.38046 -120
      vertex 89.5666 8.82154 -120
      vertex 85.5 0 -120
    endloop
  endfacet
  facet normal -0 0 -1
    outer loop
      vertex 89.5666 8.82154 -120
      vertex 85.0883 8.38046 -120
      vertex 88.2707 17.5581 -120
    endloop
  endfacet
  facet normal 0 0 -1
    outer loop
      vertex 89.5666 -8.82154 -120
      vertex 85.0883 -8.38046 -120
      vertex 85.5 0 -120
    endloop
  endfacet
  facet normal 0 0 -1
    outer loop
      vertex 88.2707 -17.5581 -120
      vertex 83.8571 -16.6802 -120
      vertex 85.0883 -8.38046 -120
    endloop
  endfacet
  facet normal 0 0 -1
    outer loop
      vertex 81.8184 -24.8193 -120
      vertex 86.1246 -26.1256 -120
      vertex 83.1492 -34.4415 -120
    endloop
  endfacet
  facet normal 0 0 -1
    outer loop
      vertex 86.1246 -26.1256 -120
      vertex 81.8184 -24.8193 -120
      vertex 83.8571 -16.6802 -120
    endloop
  endfacet
  facet normal 0 0 -1
    outer loop
      vertex 78.9917 -32.7194 -120
      vertex 83.1492 -34.4415 -120
      vertex 79.3729 -42.4257 -120
    endloop
  endfacet
  facet normal 0 0 -1
    outer loop
      vertex 83.1492 -34.4415 -120
      vertex 78.9917 -32.7194 -120
      vertex 81.8184 -24.8193 -120
    endloop
  endfacet
  facet normal 0 0 -1
    outer loop
      vertex 79.3729 -42.4257 -120
      vertex 75.4043 -40.3044 -120
      vertex 78.9917 -32.7194 -120
    endloop
  endfacet
  facet normal 0 0 -1
    outer loop
      vertex 74.8323 -50.0013 -120
      vertex 75.4043 -40.3044 -120
      vertex 79.3729 -42.4257 -120
    endloop
  endfacet
  facet normal 0 0 -1
    outer loop
      vertex 74.8323 -50.0013 -120
      vertex 71.0907 -47.5013 -120
      vertex 75.4043 -40.3044 -120
    endloop
  endfacet
  facet normal 0 0 -1
    outer loop
      vertex 69.5709 -57.0954 -120
      vertex 71.0907 -47.5013 -120
      vertex 74.8323 -50.0013 -120
    endloop
  endfacet
  facet normal 0 0 -1
    outer loop
      vertex 69.5709 -57.0954 -120
      vertex 66.0924 -54.2406 -120
      vertex 71.0907 -47.5013 -120
    endloop
  endfacet
  facet normal 0 0 -1
    outer loop
      vertex 63.6396 -63.6396 -120
      vertex 66.0924 -54.2406 -120
      vertex 69.5709 -57.0954 -120
    endloop
  endfacet
  facet normal 0 0 -1
    outer loop
      vertex 63.6396 -63.6396 -120
      vertex 60.4576 -60.4576 -120
      vertex 66.0924 -54.2406 -120
    endloop
  endfacet
  facet normal 0 0 -1
    outer loop
      vertex 57.0954 -69.5709 -120
      vertex 60.4576 -60.4576 -120
      vertex 63.6396 -63.6396 -120
    endloop
  endfacet
  facet normal 0 0 -1
    outer loop
      vertex 57.0954 -69.5709 -120
      vertex 54.2406 -66.0924 -120
      vertex 60.4576 -60.4576 -120
    endloop
  endfacet
  facet normal 0 0 -1
    outer loop
      vertex 50.0013 -74.8323 -120
      vertex 54.2406 -66.0924 -120
      vertex 57.0954 -69.5709 -120
    endloop
  endfacet
  facet normal 0 0 -1
    outer loop
      vertex 50.0013 -74.8323 -120
      vertex 47.5013 -71.0907 -120
      vertex 54.2406 -66.0924 -120
    endloop
  endfacet
  facet normal 0 0 -1
    outer loop
      vertex 42.4257 -79.3729 -120
      vertex 47.5013 -71.0907 -120
      vertex 50.0013 -74.8323 -120
    endloop
  endfacet
  facet normal 0 0 -1
    outer loop
      vertex 42.4257 -79.3729 -120
      vertex 40.3044 -75.4043 -120
      vertex 47.5013 -71.0907 -120
    endloop
  endfacet
  facet normal 0 0 -1
    outer loop
      vertex 34.4415 -83.1492 -120
      vertex 40.3044 -75.4043 -120
      vertex 42.4257 -79.3729 -120
    endloop
  endfacet
  facet normal 0 0 -1
    outer loop
      vertex 34.4415 -83.1492 -120
      vertex 32.7194 -78.9917 -120
      vertex 40.3044 -75.4043 -120
    endloop
  endfacet
  facet normal 0 0 -1
    outer loop
      vertex 26.1256 -86.1246 -120
      vertex 32.7194 -78.9917 -120
      vertex 34.4415 -83.1492 -120
    endloop
  endfacet
  facet normal 0 0 -1
    outer loop
      vertex 26.1256 -86.1246 -120
      vertex 24.8193 -81.8184 -120
      vertex 32.7194 -78.9917 -120
    endloop
  endfacet
  facet normal 0 0 -1
    outer loop
      vertex 17.5581 -88.2707 -120
      vertex 24.8193 -81.8184 -120
      vertex 26.1256 -86.1246 -120
    endloop
  endfacet
  facet normal 0 0 -1
    outer loop
      vertex 17.5581 -88.2707 -120
      vertex 16.6802 -83.8571 -120
      vertex 24.8193 -81.8184 -120
    endloop
  endfacet
  facet normal 0 0 -1
    outer loop
      vertex 8.82154 -89.5666 -120
      vertex 16.6802 -83.8571 -120
      vertex 17.5581 -88.2707 -120
    endloop
  endfacet
  facet normal 0 0 -1
    outer loop
      vertex 8.82154 -89.5666 -120
      vertex 8.38046 -85.0883 -120
      vertex 16.6802 -83.8571 -120
    endloop
  endfacet
  facet normal 0 0 -1
    outer loop
      vertex 0 -90 -120
      vertex 8.38046 -85.0883 -120
      vertex 8.82154 -89.5666 -120
    endloop
  endfacet
  facet normal 0 0 -1
    outer loop
      vertex 0 -90 -120
      vertex 0 -85.5 -120
      vertex 8.38046 -85.0883 -120
    endloop
  endfacet
  facet normal 0 0 -1
    outer loop
      vertex 0 -90 -120
      vertex -8.38046 -85.0883 -120
      vertex 0 -85.5 -120
    endloop
  endfacet
  facet normal 0 0 -1
    outer loop
      vertex -8.82154 -89.5666 -120
      vertex -8.38046 -85.0883 -120
      vertex 0 -90 -120
    endloop
  endfacet
  facet normal 0 0 -1
    outer loop
      vertex -8.82154 -89.5666 -120
      vertex -16.6802 -83.8571 -120
      vertex -8.38046 -85.0883 -120
    endloop
  endfacet
  facet normal 0 0 -1
    outer loop
      vertex -17.5581 -88.2707 -120
      vertex -16.6802 -83.8571 -120
      vertex -8.82154 -89.5666 -120
    endloop
  endfacet
  facet normal 0 0 -1
    outer loop
      vertex -17.5581 -88.2707 -120
      vertex -24.8193 -81.8184 -120
      vertex -16.6802 -83.8571 -120
    endloop
  endfacet
  facet normal 0 0 -1
    outer loop
      vertex -26.1256 -86.1246 -120
      vertex -24.8193 -81.8184 -120
      vertex -17.5581 -88.2707 -120
    endloop
  endfacet
  facet normal 0 0 -1
    outer loop
      vertex -26.1256 -86.1246 -120
      vertex -32.7194 -78.9917 -120
      vertex -24.8193 -81.8184 -120
    endloop
  endfacet
  facet normal 0 0 -1
    outer loop
      vertex -34.4415 -83.1492 -120
      vertex -32.7194 -78.9917 -120
      vertex -26.1256 -86.1246 -120
    endloop
  endfacet
  facet normal 0 0 -1
    outer loop
      vertex -34.4415 -83.1492 -120
      vertex -40.3044 -75.4043 -120
      vertex -32.7194 -78.9917 -120
    endloop
  endfacet
  facet normal 0 0 -1
    outer loop
      vertex -42.4257 -79.3729 -120
      vertex -40.3044 -75.4043 -120
      vertex -34.4415 -83.1492 -120
    endloop
  endfacet
  facet normal 0 0 -1
    outer loop
      vertex -42.4257 -79.3729 -120
      vertex -47.5013 -71.0907 -120
      vertex -40.3044 -75.4043 -120
    endloop
  endfacet
  facet normal 0 0 -1
    outer loop
      vertex -50.0013 -74.8323 -120
      vertex -47.5013 -71.0907 -120
      vertex -42.4257 -79.3729 -120
    endloop
  endfacet
  facet normal 0 0 -1
    outer loop
      vertex -50.0013 -74.8323 -120
      vertex -54.2406 -66.0924 -120
      vertex -47.5013 -71.0907 -120
    endloop
  endfacet
  facet normal 0 0 -1
    outer loop
      vertex -57.0954 -69.5709 -120
      vertex -54.2406 -66.0924 -120
      vertex -50.0013 -74.8323 -120
    endloop
  endfacet
  facet normal 0 0 -1
    outer loop
      vertex -57.0954 -69.5709 -120
      vertex -60.4576 -60.4576 -120
      vertex -54.2406 -66.0924 -120
    endloop
  endfacet
  facet normal 0 0 -1
    outer loop
      vertex -63.6396 -63.6396 -120
      vertex -60.4576 -60.4576 -120
      vertex -57.0954 -69.5709 -120
    endloop
  endfacet
  facet normal 0 0 -1
    outer loop
      vertex -63.6396 -63.6396 -120
      vertex -66.0924 -54.2406 -120
      vertex -60.4576 -60.4576 -120
    endloop
  endfacet
  facet normal 0 0 -1
    outer loop
      vertex -69.5709 -57.0954 -120
      vertex -66.0924 -54.2406 -120
      vertex -63.6396 -63.6396 -120
    endloop
  endfacet
  facet normal 0 0 -1
    outer loop
      vertex -69.5709 -57.0954 -120
      vertex -71.0907 -47.5013 -120
      vertex -66.0924 -54.2406 -120
    endloop
  endfacet
  facet normal 0 0 -1
    outer loop
      vertex -74.8323 -50.0013 -120
      vertex -71.0907 -47.5013 -120
      vertex -69.5709 -57.0954 -120
    endloop
  endfacet
  facet normal 0 0 -1
    outer loop
      vertex -74.8323 -50.0013 -120
      vertex -75.4043 -40.3044 -120
      vertex -71.0907 -47.5013 -120
    endloop
  endfacet
  facet normal 0 0 -1
    outer loop
      vertex -79.3729 -42.4257 -120
      vertex -75.4043 -40.3044 -120
      vertex -74.8323 -50.0013 -120
    endloop
  endfacet
  facet normal -0 0 -1
    outer loop
      vertex -75.4043 -40.3044 -120
      vertex -79.3729 -42.4257 -120
      vertex -78.9917 -32.7194 -120
    endloop
  endfacet
  facet normal 0 0 -1
    outer loop
      vertex -83.1492 -34.4415 -120
      vertex -78.9917 -32.7194 -120
      vertex -79.3729 -42.4257 -120
    endloop
  endfacet
  facet normal -0 0 -1
    outer loop
      vertex -78.9917 -32.7194 -120
      vertex -83.1492 -34.4415 -120
      vertex -81.8184 -24.8193 -120
    endloop
  endfacet
  facet normal 0 0 -1
    outer loop
      vertex -86.1246 -26.1256 -120
      vertex -81.8184 -24.8193 -120
      vertex -83.1492 -34.4415 -120
    endloop
  endfacet
  facet normal -0 0 -1
    outer loop
      vertex -81.8184 -24.8193 -120
      vertex -86.1246 -26.1256 -120
      vertex -83.8571 -16.6802 -120
    endloop
  endfacet
  facet normal -0 0 -1
    outer loop
      vertex -83.8571 -16.6802 -120
      vertex -88.2707 -17.5581 -120
      vertex -85.0883 -8.38046 -120
    endloop
  endfacet
  facet normal 0 0 -1
    outer loop
      vertex -88.2707 -17.5581 -120
      vertex -83.8571 -16.6802 -120
      vertex -86.1246 -26.1256 -120
    endloop
  endfacet
  facet normal 0 0 -1
    outer loop
      vertex 83.8571 16.6802 -120
      vertex 88.2707 17.5581 -120
      vertex 85.0883 8.38046 -120
    endloop
  endfacet
  facet normal -0 0 -1
    outer loop
      vertex 88.2707 17.5581 -120
      vertex 83.8571 16.6802 -120
      vertex 86.1246 26.1256 -120
    endloop
  endfacet
  facet normal 0 0 -1
    outer loop
      vertex 81.8184 24.8193 -120
      vertex 86.1246 26.1256 -120
      vertex 83.8571 16.6802 -120
    endloop
  endfacet
  facet normal -0 0 -1
    outer loop
      vertex 86.1246 26.1256 -120
      vertex 81.8184 24.8193 -120
      vertex 83.1492 34.4415 -120
    endloop
  endfacet
  facet normal 0 0 -1
    outer loop
      vertex 78.9917 32.7194 -120
      vertex 83.1492 34.4415 -120
      vertex 81.8184 24.8193 -120
    endloop
  endfacet
  facet normal -0 0 -1
    outer loop
      vertex 83.1492 34.4415 -120
      vertex 78.9917 32.7194 -120
      vertex 79.3729 42.4257 -120
    endloop
  endfacet
  facet normal 0 0 -1
    outer loop
      vertex 75.4043 40.3044 -120
      vertex 79.3729 42.4257 -120
      vertex 78.9917 32.7194 -120
    endloop
  endfacet
  facet normal 0 0 -1
    outer loop
      vertex 75.4043 40.3044 -120
      vertex 74.8323 50.0013 -120
      vertex 79.3729 42.4257 -120
    endloop
  endfacet
  facet normal 0 0 -1
    outer loop
      vertex 71.0907 47.5013 -120
      vertex 74.8323 50.0013 -120
      vertex 75.4043 40.3044 -120
    endloop
  endfacet
  facet normal 0 0 -1
    outer loop
      vertex 71.0907 47.5013 -120
      vertex 69.5709 57.0954 -120
      vertex 74.8323 50.0013 -120
    endloop
  endfacet
  facet normal 0 0 -1
    outer loop
      vertex 66.0924 54.2406 -120
      vertex 69.5709 57.0954 -120
      vertex 71.0907 47.5013 -120
    endloop
  endfacet
  facet normal 0 0 -1
    outer loop
      vertex 66.0924 54.2406 -120
      vertex 63.6396 63.6396 -120
      vertex 69.5709 57.0954 -120
    endloop
  endfacet
  facet normal 0 0 -1
    outer loop
      vertex 60.4576 60.4576 -120
      vertex 63.6396 63.6396 -120
      vertex 66.0924 54.2406 -120
    endloop
  endfacet
  facet normal 0 0 -1
    outer loop
      vertex 60.4576 60.4576 -120
      vertex 57.0954 69.5709 -120
      vertex 63.6396 63.6396 -120
    endloop
  endfacet
  facet normal 0 0 -1
    outer loop
      vertex 54.2406 66.0924 -120
      vertex 57.0954 69.5709 -120
      vertex 60.4576 60.4576 -120
    endloop
  endfacet
  facet normal 0 0 -1
    outer loop
      vertex 54.2406 66.0924 -120
      vertex 50.0013 74.8323 -120
      vertex 57.0954 69.5709 -120
    endloop
  endfacet
  facet normal 0 0 -1
    outer loop
      vertex 47.5013 71.0907 -120
      vertex 50.0013 74.8323 -120
      vertex 54.2406 66.0924 -120
    endloop
  endfacet
  facet normal 0 0 -1
    outer loop
      vertex 47.5013 71.0907 -120
      vertex 42.4257 79.3729 -120
      vertex 50.0013 74.8323 -120
    endloop
  endfacet
  facet normal 0 0 -1
    outer loop
      vertex 40.3044 75.4043 -120
      vertex 42.4257 79.3729 -120
      vertex 47.5013 71.0907 -120
    endloop
  endfacet
  facet normal 0 0 -1
    outer loop
      vertex 40.3044 75.4043 -120
      vertex 34.4415 83.1492 -120
      vertex 42.4257 79.3729 -120
    endloop
  endfacet
  facet normal 0 0 -1
    outer loop
      vertex 32.7194 78.9917 -120
      vertex 34.4415 83.1492 -120
      vertex 40.3044 75.4043 -120
    endloop
  endfacet
  facet normal 0 0 -1
    outer loop
      vertex 32.7194 78.9917 -120
      vertex 26.1256 86.1246 -120
      vertex 34.4415 83.1492 -120
    endloop
  endfacet
  facet normal 0 0 -1
    outer loop
      vertex 24.8193 81.8184 -120
      vertex 26.1256 86.1246 -120
      vertex 32.7194 78.9917 -120
    endloop
  endfacet
  facet normal 0 0 -1
    outer loop
      vertex 24.8193 81.8184 -120
      vertex 17.5581 88.2707 -120
      vertex 26.1256 86.1246 -120
    endloop
  endfacet
  facet normal 0 0 -1
    outer loop
      vertex 16.6802 83.8571 -120
      vertex 17.5581 88.2707 -120
      vertex 24.8193 81.8184 -120
    endloop
  endfacet
  facet normal 0 0 -1
    outer loop
      vertex 16.6802 83.8571 -120
      vertex 8.82154 89.5666 -120
      vertex 17.5581 88.2707 -120
    endloop
  endfacet
  facet normal 0 0 -1
    outer loop
      vertex 8.38046 85.0883 -120
      vertex 8.82154 89.5666 -120
      vertex 16.6802 83.8571 -120
    endloop
  endfacet
  facet normal 0 0 -1
    outer loop
      vertex 0 85.5 -120
      vertex 8.82154 89.5666 -120
      vertex 8.38046 85.0883 -120
    endloop
  endfacet
  facet normal 0 0 -1
    outer loop
      vertex 0 85.5 -120
      vertex 0 90 -120
      vertex 8.82154 89.5666 -120
    endloop
  endfacet
  facet normal 0 0 -1
    outer loop
      vertex -8.38046 85.0883 -120
      vertex 0 90 -120
      vertex 0 85.5 -120
    endloop
  endfacet
  facet normal 0 0 -1
    outer loop
      vertex -8.38046 85.0883 -120
      vertex -8.82154 89.5666 -120
      vertex 0 90 -120
    endloop
  endfacet
  facet normal 0 0 -1
    outer loop
      vertex -16.6802 83.8571 -120
      vertex -8.82154 89.5666 -120
      vertex -8.38046 85.0883 -120
    endloop
  endfacet
  facet normal 0 0 -1
    outer loop
      vertex -16.6802 83.8571 -120
      vertex -17.5581 88.2707 -120
      vertex -8.82154 89.5666 -120
    endloop
  endfacet
  facet normal 0 0 -1
    outer loop
      vertex -24.8193 81.8184 -120
      vertex -17.5581 88.2707 -120
      vertex -16.6802 83.8571 -120
    endloop
  endfacet
  facet normal 0 0 -1
    outer loop
      vertex -24.8193 81.8184 -120
      vertex -26.1256 86.1246 -120
      vertex -17.5581 88.2707 -120
    endloop
  endfacet
  facet normal 0 0 -1
    outer loop
      vertex -32.7194 78.9917 -120
      vertex -26.1256 86.1246 -120
      vertex -24.8193 81.8184 -120
    endloop
  endfacet
  facet normal 0 0 -1
    outer loop
      vertex -32.7194 78.9917 -120
      vertex -34.4415 83.1492 -120
      vertex -26.1256 86.1246 -120
    endloop
  endfacet
  facet normal 0 0 -1
    outer loop
      vertex -40.3044 75.4043 -120
      vertex -34.4415 83.1492 -120
      vertex -32.7194 78.9917 -120
    endloop
  endfacet
  facet normal 0 0 -1
    outer loop
      vertex -40.3044 75.4043 -120
      vertex -42.4257 79.3729 -120
      vertex -34.4415 83.1492 -120
    endloop
  endfacet
  facet normal 0 0 -1
    outer loop
      vertex -47.5013 71.0907 -120
      vertex -42.4257 79.3729 -120
      vertex -40.3044 75.4043 -120
    endloop
  endfacet
  facet normal 0 0 -1
    outer loop
      vertex -47.5013 71.0907 -120
      vertex -50.0013 74.8323 -120
      vertex -42.4257 79.3729 -120
    endloop
  endfacet
  facet normal 0 0 -1
    outer loop
      vertex -54.2406 66.0924 -120
      vertex -50.0013 74.8323 -120
      vertex -47.5013 71.0907 -120
    endloop
  endfacet
  facet normal 0 0 -1
    outer loop
      vertex -54.2406 66.0924 -120
      vertex -57.0954 69.5709 -120
      vertex -50.0013 74.8323 -120
    endloop
  endfacet
  facet normal 0 0 -1
    outer loop
      vertex -60.4576 60.4576 -120
      vertex -57.0954 69.5709 -120
      vertex -54.2406 66.0924 -120
    endloop
  endfacet
  facet normal 0 0 -1
    outer loop
      vertex -60.4576 60.4576 -120
      vertex -63.6396 63.6396 -120
      vertex -57.0954 69.5709 -120
    endloop
  endfacet
  facet normal 0 0 -1
    outer loop
      vertex -66.0924 54.2406 -120
      vertex -63.6396 63.6396 -120
      vertex -60.4576 60.4576 -120
    endloop
  endfacet
  facet normal 0 0 -1
    outer loop
      vertex -66.0924 54.2406 -120
      vertex -69.5709 57.0954 -120
      vertex -63.6396 63.6396 -120
    endloop
  endfacet
  facet normal 0 0 -1
    outer loop
      vertex -71.0907 47.5013 -120
      vertex -69.5709 57.0954 -120
      vertex -66.0924 54.2406 -120
    endloop
  endfacet
  facet normal 0 0 -1
    outer loop
      vertex -71.0907 47.5013 -120
      vertex -74.8323 50.0013 -120
      vertex -69.5709 57.0954 -120
    endloop
  endfacet
  facet normal 0 0 -1
    outer loop
      vertex -75.4043 40.3044 -120
      vertex -74.8323 50.0013 -120
      vertex -71.0907 47.5013 -120
    endloop
  endfacet
  facet normal 0 0 -1
    outer loop
      vertex -79.3729 42.4257 -120
      vertex -75.4043 40.3044 -120
      vertex -78.9917 32.7194 -120
    endloop
  endfacet
  facet normal 0 0 -1
    outer loop
      vertex -75.4043 40.3044 -120
      vertex -79.3729 42.4257 -120
      vertex -74.8323 50.0013 -120
    endloop
  endfacet
  facet normal 0 0 -1
    outer loop
      vertex -83.1492 34.4415 -120
      vertex -78.9917 32.7194 -120
      vertex -81.8184 24.8193 -120
    endloop
  endfacet
  facet normal 0 0 -1
    outer loop
      vertex -78.9917 32.7194 -120
      vertex -83.1492 34.4415 -120
      vertex -79.3729 42.4257 -120
    endloop
  endfacet
  facet normal 0 0 -1
    outer loop
      vertex -86.1246 26.1256 -120
      vertex -81.8184 24.8193 -120
      vertex -83.8571 16.6802 -120
    endloop
  endfacet
  facet normal 0 0 -1
    outer loop
      vertex -88.2707 17.5581 -120
      vertex -83.8571 16.6802 -120
      vertex -85.0883 8.38046 -120
    endloop
  endfacet
  facet normal 0 0 -1
    outer loop
      vertex -81.8184 24.8193 -120
      vertex -86.1246 26.1256 -120
      vertex -83.1492 34.4415 -120
    endloop
  endfacet
  facet normal 0 0 -1
    outer loop
      vertex -89.5666 8.82154 -120
      vertex -85.0883 8.38046 -120
      vertex -85.5 0 -120
    endloop
  endfacet
  facet normal 0 0 -1
    outer loop
      vertex -89.5666 -8.82154 -120
      vertex -85.0883 -8.38046 -120
      vertex -88.2707 -17.5581 -120
    endloop
  endfacet
  facet normal -0 0 -1
    outer loop
      vertex -85.0883 -8.38046 -120
      vertex -89.5666 -8.82154 -120
      vertex -85.5 0 -120
    endloop
  endfacet
  facet normal 0 0 -1
    outer loop
      vertex -83.8571 16.6802 -120
      vertex -88.2707 17.5581 -120
      vertex -86.1246 26.1256 -120
    endloop
  endfacet
  facet normal 0 0 -1
    outer loop
      vertex -90 0 -120
      vertex -85.5 0 -120
      vertex -89.5666 -8.82154 -120
    endloop
  endfacet
  facet normal 0 0 -1
    outer loop
      vertex -85.0883 8.38046 -120
      vertex -89.5666 8.82154 -120
      vertex -88.2707 17.5581 -120
    endloop
  endfacet
  facet normal 0 0 -1
    outer loop
      vertex -85.5 0 -120
      vertex -90 0 -120
      vertex -89.5666 8.82154 -120
    endloop
  endfacet
  facet normal -0.671558 -0.740952 0
    outer loop
      vertex -63.6396 -63.6396 -120
      vertex -57.0954 -69.5709 120
      vertex -63.6396 -63.6396 120
    endloop
  endfacet
  facet normal -0.671558 -0.740952 -0
    outer loop
      vertex -57.0954 -69.5709 120
      vertex -63.6396 -63.6396 -120
      vertex -57.0954 -69.5709 -120
    endloop
  endfacet
  facet normal -0.803204 0.595703 0
    outer loop
      vertex -74.8323 50.0013 -120
      vertex -69.5709 57.0954 120
      vertex -69.5709 57.0954 -120
    endloop
  endfacet
  facet normal -0.803204 0.595703 0
    outer loop
      vertex -69.5709 57.0954 120
      vertex -74.8323 50.0013 -120
      vertex -74.8323 50.0013 120
    endloop
  endfacet
  facet normal -0.0490706 -0.998795 0
    outer loop
      vertex -8.82154 -89.5666 -120
      vertex 0 -90 120
      vertex -8.82154 -89.5666 120
    endloop
  endfacet
  facet normal -0.0490706 -0.998795 -0
    outer loop
      vertex 0 -90 120
      vertex -8.82154 -89.5666 -120
      vertex 0 -90 -120
    endloop
  endfacet
  facet normal -0.146725 -0.989177 0
    outer loop
      vertex -17.5581 -88.2707 -120
      vertex -8.82154 -89.5666 120
      vertex -17.5581 -88.2707 120
    endloop
  endfacet
  facet normal -0.146725 -0.989177 -0
    outer loop
      vertex -8.82154 -89.5666 120
      vertex -17.5581 -88.2707 -120
      vertex -8.82154 -89.5666 -120
    endloop
  endfacet
  facet normal -0.989177 0.146725 0
    outer loop
      vertex -89.5666 8.82154 -120
      vertex -88.2707 17.5581 120
      vertex -88.2707 17.5581 -120
    endloop
  endfacet
  facet normal -0.989177 0.146725 0
    outer loop
      vertex -88.2707 17.5581 120
      vertex -89.5666 8.82154 -120
      vertex -89.5666 8.82154 120
    endloop
  endfacet
  facet normal -0.998795 0.0490706 0
    outer loop
      vertex -90 0 -120
      vertex -89.5666 8.82154 120
      vertex -89.5666 8.82154 -120
    endloop
  endfacet
  facet normal -0.998795 0.0490706 0
    outer loop
      vertex -89.5666 8.82154 120
      vertex -90 0 -120
      vertex -90 0 120
    endloop
  endfacet
  facet normal -0.336882 -0.941547 0
    outer loop
      vertex -34.4415 -83.1492 -120
      vertex -26.1256 -86.1246 120
      vertex -34.4415 -83.1492 120
    endloop
  endfacet
  facet normal -0.336882 -0.941547 -0
    outer loop
      vertex -26.1256 -86.1246 120
      vertex -34.4415 -83.1492 -120
      vertex -26.1256 -86.1246 -120
    endloop
  endfacet
  facet normal 0.671558 -0.740952 0
    outer loop
      vertex 57.0954 -69.5709 -120
      vertex 63.6396 -63.6396 120
      vertex 57.0954 -69.5709 120
    endloop
  endfacet
  facet normal 0.671558 -0.740952 0
    outer loop
      vertex 63.6396 -63.6396 120
      vertex 57.0954 -69.5709 -120
      vertex 63.6396 -63.6396 -120
    endloop
  endfacet
  facet normal 0 0 1
    outer loop
      vertex 85.5 0 120
      vertex 90 0 120
      vertex 89.5666 8.82154 120
    endloop
  endfacet
  facet normal 0 0 1
    outer loop
      vertex 85.0883 8.38046 120
      vertex 89.5666 8.82154 120
      vertex 88.2707 17.5581 120
    endloop
  endfacet
  facet normal 0 0 1
    outer loop
      vertex 90 0 120
      vertex 85.5 0 120
      vertex 89.5666 -8.82154 120
    endloop
  endfacet
  facet normal 0 0 1
    outer loop
      vertex 83.8571 16.6802 120
      vertex 88.2707 17.5581 120
      vertex 86.1246 26.1256 120
    endloop
  endfacet
  facet normal -0 0 1
    outer loop
      vertex 85.0883 -8.38046 120
      vertex 89.5666 -8.82154 120
      vertex 85.5 0 120
    endloop
  endfacet
  facet normal 0 0 1
    outer loop
      vertex 89.5666 -8.82154 120
      vertex 85.0883 -8.38046 120
      vertex 88.2707 -17.5581 120
    endloop
  endfacet
  facet normal 0 0 1
    outer loop
      vertex 89.5666 8.82154 120
      vertex 85.0883 8.38046 120
      vertex 85.5 0 120
    endloop
  endfacet
  facet normal 0 0 1
    outer loop
      vertex 88.2707 17.5581 120
      vertex 83.8571 16.6802 120
      vertex 85.0883 8.38046 120
    endloop
  endfacet
  facet normal 0 0 1
    outer loop
      vertex 81.8184 24.8193 120
      vertex 86.1246 26.1256 120
      vertex 83.1492 34.4415 120
    endloop
  endfacet
  facet normal 0 0 1
    outer loop
      vertex 86.1246 26.1256 120
      vertex 81.8184 24.8193 120
      vertex 83.8571 16.6802 120
    endloop
  endfacet
  facet normal 0 0 1
    outer loop
      vertex 78.9917 32.7194 120
      vertex 83.1492 34.4415 120
      vertex 79.3729 42.4257 120
    endloop
  endfacet
  facet normal 0 0 1
    outer loop
      vertex 83.1492 34.4415 120
      vertex 78.9917 32.7194 120
      vertex 81.8184 24.8193 120
    endloop
  endfacet
  facet normal 0 0 1
    outer loop
      vertex 79.3729 42.4257 120
      vertex 75.4043 40.3044 120
      vertex 78.9917 32.7194 120
    endloop
  endfacet
  facet normal 0 0 1
    outer loop
      vertex 74.8323 50.0013 120
      vertex 75.4043 40.3044 120
      vertex 79.3729 42.4257 120
    endloop
  endfacet
  facet normal 0 0 1
    outer loop
      vertex 74.8323 50.0013 120
      vertex 71.0907 47.5013 120
      vertex 75.4043 40.3044 120
    endloop
  endfacet
  facet normal 0 0 1
    outer loop
      vertex 69.5709 57.0954 120
      vertex 71.0907 47.5013 120
      vertex 74.8323 50.0013 120
    endloop
  endfacet
  facet normal 0 0 1
    outer loop
      vertex 69.5709 57.0954 120
      vertex 66.0924 54.2406 120
      vertex 71.0907 47.5013 120
    endloop
  endfacet
  facet normal 0 0 1
    outer loop
      vertex 63.6396 63.6396 120
      vertex 66.0924 54.2406 120
      vertex 69.5709 57.0954 120
    endloop
  endfacet
  facet normal 0 0 1
    outer loop
      vertex 63.6396 63.6396 120
      vertex 60.4576 60.4576 120
      vertex 66.0924 54.2406 120
    endloop
  endfacet
  facet normal 0 0 1
    outer loop
      vertex 57.0954 69.5709 120
      vertex 60.4576 60.4576 120
      vertex 63.6396 63.6396 120
    endloop
  endfacet
  facet normal 0 0 1
    outer loop
      vertex 57.0954 69.5709 120
      vertex 54.2406 66.0924 120
      vertex 60.4576 60.4576 120
    endloop
  endfacet
  facet normal 0 0 1
    outer loop
      vertex 50.0013 74.8323 120
      vertex 54.2406 66.0924 120
      vertex 57.0954 69.5709 120
    endloop
  endfacet
  facet normal 0 0 1
    outer loop
      vertex 50.0013 74.8323 120
      vertex 47.5013 71.0907 120
      vertex 54.2406 66.0924 120
    endloop
  endfacet
  facet normal 0 0 1
    outer loop
      vertex 42.4257 79.3729 120
      vertex 47.5013 71.0907 120
      vertex 50.0013 74.8323 120
    endloop
  endfacet
  facet normal 0 0 1
    outer loop
      vertex 42.4257 79.3729 120
      vertex 40.3044 75.4043 120
      vertex 47.5013 71.0907 120
    endloop
  endfacet
  facet normal 0 0 1
    outer loop
      vertex 34.4415 83.1492 120
      vertex 40.3044 75.4043 120
      vertex 42.4257 79.3729 120
    endloop
  endfacet
  facet normal 0 0 1
    outer loop
      vertex 34.4415 83.1492 120
      vertex 32.7194 78.9917 120
      vertex 40.3044 75.4043 120
    endloop
  endfacet
  facet normal 0 0 1
    outer loop
      vertex 26.1256 86.1246 120
      vertex 32.7194 78.9917 120
      vertex 34.4415 83.1492 120
    endloop
  endfacet
  facet normal 0 0 1
    outer loop
      vertex 26.1256 86.1246 120
      vertex 24.8193 81.8184 120
      vertex 32.7194 78.9917 120
    endloop
  endfacet
  facet normal 0 0 1
    outer loop
      vertex 17.5581 88.2707 120
      vertex 24.8193 81.8184 120
      vertex 26.1256 86.1246 120
    endloop
  endfacet
  facet normal 0 0 1
    outer loop
      vertex 17.5581 88.2707 120
      vertex 16.6802 83.8571 120
      vertex 24.8193 81.8184 120
    endloop
  endfacet
  facet normal 0 0 1
    outer loop
      vertex 8.82154 89.5666 120
      vertex 16.6802 83.8571 120
      vertex 17.5581 88.2707 120
    endloop
  endfacet
  facet normal 0 0 1
    outer loop
      vertex 8.82154 89.5666 120
      vertex 8.38046 85.0883 120
      vertex 16.6802 83.8571 120
    endloop
  endfacet
  facet normal 0 0 1
    outer loop
      vertex 0 90 120
      vertex 8.38046 85.0883 120
      vertex 8.82154 89.5666 120
    endloop
  endfacet
  facet normal 0 0 1
    outer loop
      vertex 0 90 120
      vertex 0 85.5 120
      vertex 8.38046 85.0883 120
    endloop
  endfacet
  facet normal 0 0 1
    outer loop
      vertex 0 90 120
      vertex -8.38046 85.0883 120
      vertex 0 85.5 120
    endloop
  endfacet
  facet normal -0 0 1
    outer loop
      vertex -8.82154 89.5666 120
      vertex -8.38046 85.0883 120
      vertex 0 90 120
    endloop
  endfacet
  facet normal 0 0 1
    outer loop
      vertex -8.82154 89.5666 120
      vertex -16.6802 83.8571 120
      vertex -8.38046 85.0883 120
    endloop
  endfacet
  facet normal -0 0 1
    outer loop
      vertex -17.5581 88.2707 120
      vertex -16.6802 83.8571 120
      vertex -8.82154 89.5666 120
    endloop
  endfacet
  facet normal 0 0 1
    outer loop
      vertex -17.5581 88.2707 120
      vertex -24.8193 81.8184 120
      vertex -16.6802 83.8571 120
    endloop
  endfacet
  facet normal -0 0 1
    outer loop
      vertex -26.1256 86.1246 120
      vertex -24.8193 81.8184 120
      vertex -17.5581 88.2707 120
    endloop
  endfacet
  facet normal 0 0 1
    outer loop
      vertex -26.1256 86.1246 120
      vertex -32.7194 78.9917 120
      vertex -24.8193 81.8184 120
    endloop
  endfacet
  facet normal -0 0 1
    outer loop
      vertex -34.4415 83.1492 120
      vertex -32.7194 78.9917 120
      vertex -26.1256 86.1246 120
    endloop
  endfacet
  facet normal 0 0 1
    outer loop
      vertex -34.4415 83.1492 120
      vertex -40.3044 75.4043 120
      vertex -32.7194 78.9917 120
    endloop
  endfacet
  facet normal -0 0 1
    outer loop
      vertex -42.4257 79.3729 120
      vertex -40.3044 75.4043 120
      vertex -34.4415 83.1492 120
    endloop
  endfacet
  facet normal 0 0 1
    outer loop
      vertex -42.4257 79.3729 120
      vertex -47.5013 71.0907 120
      vertex -40.3044 75.4043 120
    endloop
  endfacet
  facet normal -0 0 1
    outer loop
      vertex -50.0013 74.8323 120
      vertex -47.5013 71.0907 120
      vertex -42.4257 79.3729 120
    endloop
  endfacet
  facet normal 0 0 1
    outer loop
      vertex -50.0013 74.8323 120
      vertex -54.2406 66.0924 120
      vertex -47.5013 71.0907 120
    endloop
  endfacet
  facet normal -0 0 1
    outer loop
      vertex -57.0954 69.5709 120
      vertex -54.2406 66.0924 120
      vertex -50.0013 74.8323 120
    endloop
  endfacet
  facet normal 0 0 1
    outer loop
      vertex -57.0954 69.5709 120
      vertex -60.4576 60.4576 120
      vertex -54.2406 66.0924 120
    endloop
  endfacet
  facet normal -0 0 1
    outer loop
      vertex -63.6396 63.6396 120
      vertex -60.4576 60.4576 120
      vertex -57.0954 69.5709 120
    endloop
  endfacet
  facet normal 0 0 1
    outer loop
      vertex -63.6396 63.6396 120
      vertex -66.0924 54.2406 120
      vertex -60.4576 60.4576 120
    endloop
  endfacet
  facet normal -0 0 1
    outer loop
      vertex -69.5709 57.0954 120
      vertex -66.0924 54.2406 120
      vertex -63.6396 63.6396 120
    endloop
  endfacet
  facet normal 0 0 1
    outer loop
      vertex -69.5709 57.0954 120
      vertex -71.0907 47.5013 120
      vertex -66.0924 54.2406 120
    endloop
  endfacet
  facet normal -0 0 1
    outer loop
      vertex -74.8323 50.0013 120
      vertex -71.0907 47.5013 120
      vertex -69.5709 57.0954 120
    endloop
  endfacet
  facet normal 0 0 1
    outer loop
      vertex -74.8323 50.0013 120
      vertex -75.4043 40.3044 120
      vertex -71.0907 47.5013 120
    endloop
  endfacet
  facet normal -0 0 1
    outer loop
      vertex -79.3729 42.4257 120
      vertex -75.4043 40.3044 120
      vertex -74.8323 50.0013 120
    endloop
  endfacet
  facet normal 0 0 1
    outer loop
      vertex -75.4043 40.3044 120
      vertex -79.3729 42.4257 120
      vertex -78.9917 32.7194 120
    endloop
  endfacet
  facet normal -0 0 1
    outer loop
      vertex -83.1492 34.4415 120
      vertex -78.9917 32.7194 120
      vertex -79.3729 42.4257 120
    endloop
  endfacet
  facet normal 0 0 1
    outer loop
      vertex -78.9917 32.7194 120
      vertex -83.1492 34.4415 120
      vertex -81.8184 24.8193 120
    endloop
  endfacet
  facet normal -0 0 1
    outer loop
      vertex -86.1246 26.1256 120
      vertex -81.8184 24.8193 120
      vertex -83.1492 34.4415 120
    endloop
  endfacet
  facet normal 0 0 1
    outer loop
      vertex -81.8184 24.8193 120
      vertex -86.1246 26.1256 120
      vertex -83.8571 16.6802 120
    endloop
  endfacet
  facet normal 0 0 1
    outer loop
      vertex -83.8571 16.6802 120
      vertex -88.2707 17.5581 120
      vertex -85.0883 8.38046 120
    endloop
  endfacet
  facet normal -0 0 1
    outer loop
      vertex -88.2707 17.5581 120
      vertex -83.8571 16.6802 120
      vertex -86.1246 26.1256 120
    endloop
  endfacet
  facet normal -0 0 1
    outer loop
      vertex 83.8571 -16.6802 120
      vertex 88.2707 -17.5581 120
      vertex 85.0883 -8.38046 120
    endloop
  endfacet
  facet normal 0 0 1
    outer loop
      vertex 88.2707 -17.5581 120
      vertex 83.8571 -16.6802 120
      vertex 86.1246 -26.1256 120
    endloop
  endfacet
  facet normal -0 0 1
    outer loop
      vertex 81.8184 -24.8193 120
      vertex 86.1246 -26.1256 120
      vertex 83.8571 -16.6802 120
    endloop
  endfacet
  facet normal 0 0 1
    outer loop
      vertex 86.1246 -26.1256 120
      vertex 81.8184 -24.8193 120
      vertex 83.1492 -34.4415 120
    endloop
  endfacet
  facet normal -0 0 1
    outer loop
      vertex 78.9917 -32.7194 120
      vertex 83.1492 -34.4415 120
      vertex 81.8184 -24.8193 120
    endloop
  endfacet
  facet normal 0 0 1
    outer loop
      vertex 83.1492 -34.4415 120
      vertex 78.9917 -32.7194 120
      vertex 79.3729 -42.4257 120
    endloop
  endfacet
  facet normal -0 0 1
    outer loop
      vertex 75.4043 -40.3044 120
      vertex 79.3729 -42.4257 120
      vertex 78.9917 -32.7194 120
    endloop
  endfacet
  facet normal 0 0 1
    outer loop
      vertex 75.4043 -40.3044 120
      vertex 74.8323 -50.0013 120
      vertex 79.3729 -42.4257 120
    endloop
  endfacet
  facet normal -0 0 1
    outer loop
      vertex 71.0907 -47.5013 120
      vertex 74.8323 -50.0013 120
      vertex 75.4043 -40.3044 120
    endloop
  endfacet
  facet normal 0 0 1
    outer loop
      vertex 71.0907 -47.5013 120
      vertex 69.5709 -57.0954 120
      vertex 74.8323 -50.0013 120
    endloop
  endfacet
  facet normal -0 0 1
    outer loop
      vertex 66.0924 -54.2406 120
      vertex 69.5709 -57.0954 120
      vertex 71.0907 -47.5013 120
    endloop
  endfacet
  facet normal 0 0 1
    outer loop
      vertex 66.0924 -54.2406 120
      vertex 63.6396 -63.6396 120
      vertex 69.5709 -57.0954 120
    endloop
  endfacet
  facet normal -0 0 1
    outer loop
      vertex 60.4576 -60.4576 120
      vertex 63.6396 -63.6396 120
      vertex 66.0924 -54.2406 120
    endloop
  endfacet
  facet normal 0 0 1
    outer loop
      vertex 60.4576 -60.4576 120
      vertex 57.0954 -69.5709 120
      vertex 63.6396 -63.6396 120
    endloop
  endfacet
  facet normal -0 0 1
    outer loop
      vertex 54.2406 -66.0924 120
      vertex 57.0954 -69.5709 120
      vertex 60.4576 -60.4576 120
    endloop
  endfacet
  facet normal 0 0 1
    outer loop
      vertex 54.2406 -66.0924 120
      vertex 50.0013 -74.8323 120
      vertex 57.0954 -69.5709 120
    endloop
  endfacet
  facet normal -0 0 1
    outer loop
      vertex 47.5013 -71.0907 120
      vertex 50.0013 -74.8323 120
      vertex 54.2406 -66.0924 120
    endloop
  endfacet
  facet normal 0 0 1
    outer loop
      vertex 47.5013 -71.0907 120
      vertex 42.4257 -79.3729 120
      vertex 50.0013 -74.8323 120
    endloop
  endfacet
  facet normal -0 0 1
    outer loop
      vertex 40.3044 -75.4043 120
      vertex 42.4257 -79.3729 120
      vertex 47.5013 -71.0907 120
    endloop
  endfacet
  facet normal 0 0 1
    outer loop
      vertex 40.3044 -75.4043 120
      vertex 34.4415 -83.1492 120
      vertex 42.4257 -79.3729 120
    endloop
  endfacet
  facet normal -0 0 1
    outer loop
      vertex 32.7194 -78.9917 120
      vertex 34.4415 -83.1492 120
      vertex 40.3044 -75.4043 120
    endloop
  endfacet
  facet normal 0 0 1
    outer loop
      vertex 32.7194 -78.9917 120
      vertex 26.1256 -86.1246 120
      vertex 34.4415 -83.1492 120
    endloop
  endfacet
  facet normal -0 0 1
    outer loop
      vertex 24.8193 -81.8184 120
      vertex 26.1256 -86.1246 120
      vertex 32.7194 -78.9917 120
    endloop
  endfacet
  facet normal 0 0 1
    outer loop
      vertex 24.8193 -81.8184 120
      vertex 17.5581 -88.2707 120
      vertex 26.1256 -86.1246 120
    endloop
  endfacet
  facet normal -0 0 1
    outer loop
      vertex 16.6802 -83.8571 120
      vertex 17.5581 -88.2707 120
      vertex 24.8193 -81.8184 120
    endloop
  endfacet
  facet normal 0 0 1
    outer loop
      vertex 16.6802 -83.8571 120
      vertex 8.82154 -89.5666 120
      vertex 17.5581 -88.2707 120
    endloop
  endfacet
  facet normal -0 0 1
    outer loop
      vertex 8.38046 -85.0883 120
      vertex 8.82154 -89.5666 120
      vertex 16.6802 -83.8571 120
    endloop
  endfacet
  facet normal -0 0 1
    outer loop
      vertex 0 -85.5 120
      vertex 8.82154 -89.5666 120
      vertex 8.38046 -85.0883 120
    endloop
  endfacet
  facet normal 0 0 1
    outer loop
      vertex 0 -85.5 120
      vertex 0 -90 120
      vertex 8.82154 -89.5666 120
    endloop
  endfacet
  facet normal 0 0 1
    outer loop
      vertex -8.38046 -85.0883 120
      vertex 0 -90 120
      vertex 0 -85.5 120
    endloop
  endfacet
  facet normal 0 0 1
    outer loop
      vertex -8.38046 -85.0883 120
      vertex -8.82154 -89.5666 120
      vertex 0 -90 120
    endloop
  endfacet
  facet normal 0 0 1
    outer loop
      vertex -16.6802 -83.8571 120
      vertex -8.82154 -89.5666 120
      vertex -8.38046 -85.0883 120
    endloop
  endfacet
  facet normal 0 0 1
    outer loop
      vertex -16.6802 -83.8571 120
      vertex -17.5581 -88.2707 120
      vertex -8.82154 -89.5666 120
    endloop
  endfacet
  facet normal 0 0 1
    outer loop
      vertex -24.8193 -81.8184 120
      vertex -17.5581 -88.2707 120
      vertex -16.6802 -83.8571 120
    endloop
  endfacet
  facet normal 0 0 1
    outer loop
      vertex -24.8193 -81.8184 120
      vertex -26.1256 -86.1246 120
      vertex -17.5581 -88.2707 120
    endloop
  endfacet
  facet normal 0 0 1
    outer loop
      vertex -32.7194 -78.9917 120
      vertex -26.1256 -86.1246 120
      vertex -24.8193 -81.8184 120
    endloop
  endfacet
  facet normal 0 0 1
    outer loop
      vertex -32.7194 -78.9917 120
      vertex -34.4415 -83.1492 120
      vertex -26.1256 -86.1246 120
    endloop
  endfacet
  facet normal 0 0 1
    outer loop
      vertex -40.3044 -75.4043 120
      vertex -34.4415 -83.1492 120
      vertex -32.7194 -78.9917 120
    endloop
  endfacet
  facet normal 0 0 1
    outer loop
      vertex -40.3044 -75.4043 120
      vertex -42.4257 -79.3729 120
      vertex -34.4415 -83.1492 120
    endloop
  endfacet
  facet normal 0 0 1
    outer loop
      vertex -47.5013 -71.0907 120
      vertex -42.4257 -79.3729 120
      vertex -40.3044 -75.4043 120
    endloop
  endfacet
  facet normal 0 0 1
    outer loop
      vertex -47.5013 -71.0907 120
      vertex -50.0013 -74.8323 120
      vertex -42.4257 -79.3729 120
    endloop
  endfacet
  facet normal 0 0 1
    outer loop
      vertex -54.2406 -66.0924 120
      vertex -50.0013 -74.8323 120
      vertex -47.5013 -71.0907 120
    endloop
  endfacet
  facet normal 0 0 1
    outer loop
      vertex -54.2406 -66.0924 120
      vertex -57.0954 -69.5709 120
      vertex -50.0013 -74.8323 120
    endloop
  endfacet
  facet normal 0 0 1
    outer loop
      vertex -60.4576 -60.4576 120
      vertex -57.0954 -69.5709 120
      vertex -54.2406 -66.0924 120
    endloop
  endfacet
  facet normal 0 0 1
    outer loop
      vertex -60.4576 -60.4576 120
      vertex -63.6396 -63.6396 120
      vertex -57.0954 -69.5709 120
    endloop
  endfacet
  facet normal 0 0 1
    outer loop
      vertex -66.0924 -54.2406 120
      vertex -63.6396 -63.6396 120
      vertex -60.4576 -60.4576 120
    endloop
  endfacet
  facet normal 0 0 1
    outer loop
      vertex -66.0924 -54.2406 120
      vertex -69.5709 -57.0954 120
      vertex -63.6396 -63.6396 120
    endloop
  endfacet
  facet normal 0 0 1
    outer loop
      vertex -71.0907 -47.5013 120
      vertex -69.5709 -57.0954 120
      vertex -66.0924 -54.2406 120
    endloop
  endfacet
  facet normal 0 0 1
    outer loop
      vertex -71.0907 -47.5013 120
      vertex -74.8323 -50.0013 120
      vertex -69.5709 -57.0954 120
    endloop
  endfacet
  facet normal 0 0 1
    outer loop
      vertex -75.4043 -40.3044 120
      vertex -74.8323 -50.0013 120
      vertex -71.0907 -47.5013 120
    endloop
  endfacet
  facet normal 0 0 1
    outer loop
      vertex -79.3729 -42.4257 120
      vertex -75.4043 -40.3044 120
      vertex -78.9917 -32.7194 120
    endloop
  endfacet
  facet normal 0 0 1
    outer loop
      vertex -75.4043 -40.3044 120
      vertex -79.3729 -42.4257 120
      vertex -74.8323 -50.0013 120
    endloop
  endfacet
  facet normal 0 0 1
    outer loop
      vertex -83.1492 -34.4415 120
      vertex -78.9917 -32.7194 120
      vertex -81.8184 -24.8193 120
    endloop
  endfacet
  facet normal 0 0 1
    outer loop
      vertex -78.9917 -32.7194 120
      vertex -83.1492 -34.4415 120
      vertex -79.3729 -42.4257 120
    endloop
  endfacet
  facet normal 0 0 1
    outer loop
      vertex -86.1246 -26.1256 120
      vertex -81.8184 -24.8193 120
      vertex -83.8571 -16.6802 120
    endloop
  endfacet
  facet normal 0 0 1
    outer loop
      vertex -88.2707 -17.5581 120
      vertex -83.8571 -16.6802 120
      vertex -85.0883 -8.38046 120
    endloop
  endfacet
  facet normal 0 0 1
    outer loop
      vertex -81.8184 -24.8193 120
      vertex -86.1246 -26.1256 120
      vertex -83.1492 -34.4415 120
    endloop
  endfacet
  facet normal 0 0 1
    outer loop
      vertex -89.5666 -8.82154 120
      vertex -85.0883 -8.38046 120
      vertex -85.5 0 120
    endloop
  endfacet
  facet normal -0 0 1
    outer loop
      vertex -89.5666 8.82154 120
      vertex -85.0883 8.38046 120
      vertex -88.2707 17.5581 120
    endloop
  endfacet
  facet normal 0 0 1
    outer loop
      vertex -85.0883 8.38046 120
      vertex -89.5666 8.82154 120
      vertex -85.5 0 120
    endloop
  endfacet
  facet normal 0 0 1
    outer loop
      vertex -83.8571 -16.6802 120
      vertex -88.2707 -17.5581 120
      vertex -86.1246 -26.1256 120
    endloop
  endfacet
  facet normal 0 0 1
    outer loop
      vertex -90 0 120
      vertex -85.5 0 120
      vertex -89.5666 8.82154 120
    endloop
  endfacet
  facet normal 0 0 1
    outer loop
      vertex -85.0883 -8.38046 120
      vertex -89.5666 -8.82154 120
      vertex -88.2707 -17.5581 120
    endloop
  endfacet
  facet normal 0 0 1
    outer loop
      vertex -85.5 0 120
      vertex -90 0 120
      vertex -89.5666 -8.82154 120
    endloop
  endfacet
  facet normal -0.740949 -0.671562 0
    outer loop
      vertex 66.0924 54.2406 -120
      vertex 60.4576 60.4576 120
      vertex 60.4576 60.4576 -120
    endloop
  endfacet
  facet normal -0.740949 -0.671562 0
    outer loop
      vertex 60.4576 60.4576 120
      vertex 66.0924 54.2406 -120
      vertex 66.0924 54.2406 120
    endloop
  endfacet
  facet normal -0.989176 -0.146736 0
    outer loop
      vertex 85.0883 8.38046 -120
      vertex 83.8571 16.6802 120
      vertex 83.8571 16.6802 -120
    endloop
  endfacet
  facet normal -0.989176 -0.146736 0
    outer loop
      vertex 83.8571 16.6802 120
      vertex 85.0883 8.38046 -120
      vertex 85.0883 8.38046 120
    endloop
  endfacet
  facet normal -0.998795 -0.049067 0
    outer loop
      vertex 85.5 0 -120
      vertex 85.0883 8.38046 120
      vertex 85.0883 8.38046 -120
    endloop
  endfacet
  facet normal -0.998795 -0.049067 0
    outer loop
      vertex 85.0883 8.38046 120
      vertex 85.5 0 -120
      vertex 85.5 0 120
    endloop
  endfacet
  facet normal -0.970032 -0.242976 0
    outer loop
      vertex 83.8571 16.6802 -120
      vertex 81.8184 24.8193 120
      vertex 81.8184 24.8193 -120
    endloop
  endfacet
  facet normal -0.970032 -0.242976 0
    outer loop
      vertex 81.8184 24.8193 120
      vertex 83.8571 16.6802 -120
      vertex 83.8571 16.6802 120
    endloop
  endfacet
  facet normal -0.33689 0.941544 0
    outer loop
      vertex 32.7194 -78.9917 -120
      vertex 24.8193 -81.8184 120
      vertex 32.7194 -78.9917 120
    endloop
  endfacet
  facet normal -0.33689 0.941544 0
    outer loop
      vertex 24.8193 -81.8184 120
      vertex 32.7194 -78.9917 -120
      vertex 24.8193 -81.8184 -120
    endloop
  endfacet
  facet normal -0.857732 -0.514098 0
    outer loop
      vertex 75.4043 40.3044 -120
      vertex 71.0907 47.5013 120
      vertex 71.0907 47.5013 -120
    endloop
  endfacet
  facet normal -0.857732 -0.514098 0
    outer loop
      vertex 71.0907 47.5013 120
      vertex 75.4043 40.3044 -120
      vertex 75.4043 40.3044 120
    endloop
  endfacet
  facet normal -0.941544 -0.33689 0
    outer loop
      vertex 81.8184 24.8193 -120
      vertex 78.9917 32.7194 120
      vertex 78.9917 32.7194 -120
    endloop
  endfacet
  facet normal -0.941544 -0.33689 0
    outer loop
      vertex 78.9917 32.7194 120
      vertex 81.8184 24.8193 -120
      vertex 81.8184 24.8193 120
    endloop
  endfacet
  facet normal -0.242976 -0.970032 0
    outer loop
      vertex 16.6802 83.8571 -120
      vertex 24.8193 81.8184 120
      vertex 16.6802 83.8571 120
    endloop
  endfacet
  facet normal -0.242976 -0.970032 -0
    outer loop
      vertex 24.8193 81.8184 120
      vertex 16.6802 83.8571 -120
      vertex 24.8193 81.8184 -120
    endloop
  endfacet
  facet normal 0.740949 -0.671562 0
    outer loop
      vertex -66.0924 54.2406 120
      vertex -60.4576 60.4576 -120
      vertex -60.4576 60.4576 120
    endloop
  endfacet
  facet normal 0.740949 -0.671562 0
    outer loop
      vertex -60.4576 60.4576 -120
      vertex -66.0924 54.2406 120
      vertex -66.0924 54.2406 -120
    endloop
  endfacet
  facet normal -0.049067 0.998795 0
    outer loop
      vertex 8.38046 -85.0883 -120
      vertex 0 -85.5 120
      vertex 8.38046 -85.0883 120
    endloop
  endfacet
  facet normal -0.049067 0.998795 0
    outer loop
      vertex 0 -85.5 120
      vertex 8.38046 -85.0883 -120
      vertex 0 -85.5 -120
    endloop
  endfacet
  facet normal -0.427551 -0.903991 0
    outer loop
      vertex 32.7194 78.9917 -120
      vertex 40.3044 75.4043 120
      vertex 32.7194 78.9917 120
    endloop
  endfacet
  facet normal -0.427551 -0.903991 -0
    outer loop
      vertex 40.3044 75.4043 120
      vertex 32.7194 78.9917 -120
      vertex 40.3044 75.4043 -120
    endloop
  endfacet
  facet normal -0.671562 -0.740949 0
    outer loop
      vertex 54.2406 66.0924 -120
      vertex 60.4576 60.4576 120
      vertex 54.2406 66.0924 120
    endloop
  endfacet
  facet normal -0.671562 -0.740949 -0
    outer loop
      vertex 60.4576 60.4576 120
      vertex 54.2406 66.0924 -120
      vertex 60.4576 60.4576 -120
    endloop
  endfacet
  facet normal 0.595707 0.803202 -0
    outer loop
      vertex -47.5013 -71.0907 -120
      vertex -54.2406 -66.0924 120
      vertex -47.5013 -71.0907 120
    endloop
  endfacet
  facet normal 0.595707 0.803202 0
    outer loop
      vertex -54.2406 -66.0924 120
      vertex -47.5013 -71.0907 -120
      vertex -54.2406 -66.0924 -120
    endloop
  endfacet
  facet normal -0.242976 0.970032 0
    outer loop
      vertex 24.8193 -81.8184 -120
      vertex 16.6802 -83.8571 120
      vertex 24.8193 -81.8184 120
    endloop
  endfacet
  facet normal -0.242976 0.970032 0
    outer loop
      vertex 16.6802 -83.8571 120
      vertex 24.8193 -81.8184 -120
      vertex 16.6802 -83.8571 -120
    endloop
  endfacet
  facet normal -0.989176 0.146736 0
    outer loop
      vertex 83.8571 -16.6802 -120
      vertex 85.0883 -8.38046 120
      vertex 85.0883 -8.38046 -120
    endloop
  endfacet
  facet normal -0.989176 0.146736 0
    outer loop
      vertex 85.0883 -8.38046 120
      vertex 83.8571 -16.6802 -120
      vertex 83.8571 -16.6802 120
    endloop
  endfacet
  facet normal -0.514098 0.857732 0
    outer loop
      vertex 47.5013 -71.0907 -120
      vertex 40.3044 -75.4043 120
      vertex 47.5013 -71.0907 120
    endloop
  endfacet
  facet normal -0.514098 0.857732 0
    outer loop
      vertex 40.3044 -75.4043 120
      vertex 47.5013 -71.0907 -120
      vertex 40.3044 -75.4043 -120
    endloop
  endfacet
  facet normal 0.242976 0.970032 -0
    outer loop
      vertex -16.6802 -83.8571 -120
      vertex -24.8193 -81.8184 120
      vertex -16.6802 -83.8571 120
    endloop
  endfacet
  facet normal 0.242976 0.970032 0
    outer loop
      vertex -24.8193 -81.8184 120
      vertex -16.6802 -83.8571 -120
      vertex -24.8193 -81.8184 -120
    endloop
  endfacet
  facet normal 0.595707 -0.803202 0
    outer loop
      vertex -54.2406 66.0924 -120
      vertex -47.5013 71.0907 120
      vertex -54.2406 66.0924 120
    endloop
  endfacet
  facet normal 0.595707 -0.803202 0
    outer loop
      vertex -47.5013 71.0907 120
      vertex -54.2406 66.0924 -120
      vertex -47.5013 71.0907 -120
    endloop
  endfacet
  facet normal 0.998795 0.049067 0
    outer loop
      vertex -85.0883 -8.38046 120
      vertex -85.5 0 -120
      vertex -85.5 0 120
    endloop
  endfacet
  facet normal 0.998795 0.049067 0
    outer loop
      vertex -85.5 0 -120
      vertex -85.0883 -8.38046 120
      vertex -85.0883 -8.38046 -120
    endloop
  endfacet
  facet normal 0.970032 0.242976 0
    outer loop
      vertex -81.8184 -24.8193 120
      vertex -83.8571 -16.6802 -120
      vertex -83.8571 -16.6802 120
    endloop
  endfacet
  facet normal 0.970032 0.242976 0
    outer loop
      vertex -83.8571 -16.6802 -120
      vertex -81.8184 -24.8193 120
      vertex -81.8184 -24.8193 -120
    endloop
  endfacet
  facet normal -0.970032 0.242976 0
    outer loop
      vertex 81.8184 -24.8193 -120
      vertex 83.8571 -16.6802 120
      vertex 83.8571 -16.6802 -120
    endloop
  endfacet
  facet normal -0.970032 0.242976 0
    outer loop
      vertex 83.8571 -16.6802 120
      vertex 81.8184 -24.8193 -120
      vertex 81.8184 -24.8193 120
    endloop
  endfacet
  facet normal 0.514098 -0.857732 0
    outer loop
      vertex -47.5013 71.0907 -120
      vertex -40.3044 75.4043 120
      vertex -47.5013 71.0907 120
    endloop
  endfacet
  facet normal 0.514098 -0.857732 0
    outer loop
      vertex -40.3044 75.4043 120
      vertex -47.5013 71.0907 -120
      vertex -40.3044 75.4043 -120
    endloop
  endfacet
  facet normal -0.595707 -0.803202 0
    outer loop
      vertex 47.5013 71.0907 -120
      vertex 54.2406 66.0924 120
      vertex 47.5013 71.0907 120
    endloop
  endfacet
  facet normal -0.595707 -0.803202 -0
    outer loop
      vertex 54.2406 66.0924 120
      vertex 47.5013 71.0907 -120
      vertex 54.2406 66.0924 -120
    endloop
  endfacet
  facet normal 0.903991 0.427551 0
    outer loop
      vertex -75.4043 -40.3044 120
      vertex -78.9917 -32.7194 -120
      vertex -78.9917 -32.7194 120
    endloop
  endfacet
  facet normal 0.903991 0.427551 0
    outer loop
      vertex -78.9917 -32.7194 -120
      vertex -75.4043 -40.3044 120
      vertex -75.4043 -40.3044 -120
    endloop
  endfacet
  facet normal -0.941544 0.33689 0
    outer loop
      vertex 78.9917 -32.7194 -120
      vertex 81.8184 -24.8193 120
      vertex 81.8184 -24.8193 -120
    endloop
  endfacet
  facet normal -0.941544 0.33689 0
    outer loop
      vertex 81.8184 -24.8193 120
      vertex 78.9917 -32.7194 -120
      vertex 78.9917 -32.7194 120
    endloop
  endfacet
  facet normal -0.146736 -0.989176 0
    outer loop
      vertex 8.38046 85.0883 -120
      vertex 16.6802 83.8571 120
      vertex 8.38046 85.0883 120
    endloop
  endfacet
  facet normal -0.146736 -0.989176 -0
    outer loop
      vertex 16.6802 83.8571 120
      vertex 8.38046 85.0883 -120
      vertex 16.6802 83.8571 -120
    endloop
  endfacet
  facet normal 0.427551 -0.903991 0
    outer loop
      vertex -40.3044 75.4043 -120
      vertex -32.7194 78.9917 120
      vertex -40.3044 75.4043 120
    endloop
  endfacet
  facet normal 0.427551 -0.903991 0
    outer loop
      vertex -32.7194 78.9917 120
      vertex -40.3044 75.4043 -120
      vertex -32.7194 78.9917 -120
    endloop
  endfacet
  facet normal -0.514098 -0.857732 0
    outer loop
      vertex 40.3044 75.4043 -120
      vertex 47.5013 71.0907 120
      vertex 40.3044 75.4043 120
    endloop
  endfacet
  facet normal -0.514098 -0.857732 -0
    outer loop
      vertex 47.5013 71.0907 120
      vertex 40.3044 75.4043 -120
      vertex 47.5013 71.0907 -120
    endloop
  endfacet
  facet normal -0.427551 0.903991 0
    outer loop
      vertex 40.3044 -75.4043 -120
      vertex 32.7194 -78.9917 120
      vertex 40.3044 -75.4043 120
    endloop
  endfacet
  facet normal -0.427551 0.903991 0
    outer loop
      vertex 32.7194 -78.9917 120
      vertex 40.3044 -75.4043 -120
      vertex 32.7194 -78.9917 -120
    endloop
  endfacet
  facet normal 0.941544 0.33689 0
    outer loop
      vertex -78.9917 -32.7194 120
      vertex -81.8184 -24.8193 -120
      vertex -81.8184 -24.8193 120
    endloop
  endfacet
  facet normal 0.941544 0.33689 0
    outer loop
      vertex -81.8184 -24.8193 -120
      vertex -78.9917 -32.7194 120
      vertex -78.9917 -32.7194 -120
    endloop
  endfacet
  facet normal -0.857732 0.514098 0
    outer loop
      vertex 71.0907 -47.5013 -120
      vertex 75.4043 -40.3044 120
      vertex 75.4043 -40.3044 -120
    endloop
  endfacet
  facet normal -0.857732 0.514098 0
    outer loop
      vertex 75.4043 -40.3044 120
      vertex 71.0907 -47.5013 -120
      vertex 71.0907 -47.5013 120
    endloop
  endfacet
  facet normal -0.903991 0.427551 0
    outer loop
      vertex 75.4043 -40.3044 -120
      vertex 78.9917 -32.7194 120
      vertex 78.9917 -32.7194 -120
    endloop
  endfacet
  facet normal -0.903991 0.427551 0
    outer loop
      vertex 78.9917 -32.7194 120
      vertex 75.4043 -40.3044 -120
      vertex 75.4043 -40.3044 120
    endloop
  endfacet
  facet normal -0.998795 0.049067 0
    outer loop
      vertex 85.0883 -8.38046 -120
      vertex 85.5 0 120
      vertex 85.5 0 -120
    endloop
  endfacet
  facet normal -0.998795 0.049067 0
    outer loop
      vertex 85.5 0 120
      vertex 85.0883 -8.38046 -120
      vertex 85.0883 -8.38046 120
    endloop
  endfacet
  facet normal 0.146736 -0.989176 0
    outer loop
      vertex -16.6802 83.8571 -120
      vertex -8.38046 85.0883 120
      vertex -16.6802 83.8571 120
    endloop
  endfacet
  facet normal 0.146736 -0.989176 0
    outer loop
      vertex -8.38046 85.0883 120
      vertex -16.6802 83.8571 -120
      vertex -8.38046 85.0883 -120
    endloop
  endfacet
  facet normal -0.146736 0.989176 0
    outer loop
      vertex 16.6802 -83.8571 -120
      vertex 8.38046 -85.0883 120
      vertex 16.6802 -83.8571 120
    endloop
  endfacet
  facet normal -0.146736 0.989176 0
    outer loop
      vertex 8.38046 -85.0883 120
      vertex 16.6802 -83.8571 -120
      vertex 8.38046 -85.0883 -120
    endloop
  endfacet
  facet normal -0.740949 0.671562 0
    outer loop
      vertex 60.4576 -60.4576 -120
      vertex 66.0924 -54.2406 120
      vertex 66.0924 -54.2406 -120
    endloop
  endfacet
  facet normal -0.740949 0.671562 0
    outer loop
      vertex 66.0924 -54.2406 120
      vertex 60.4576 -60.4576 -120
      vertex 60.4576 -60.4576 120
    endloop
  endfacet
  facet normal -0.803202 0.595707 0
    outer loop
      vertex 66.0924 -54.2406 -120
      vertex 71.0907 -47.5013 120
      vertex 71.0907 -47.5013 -120
    endloop
  endfacet
  facet normal -0.803202 0.595707 0
    outer loop
      vertex 71.0907 -47.5013 120
      vertex 66.0924 -54.2406 -120
      vertex 66.0924 -54.2406 120
    endloop
  endfacet
  facet normal 0.242976 -0.970032 0
    outer loop
      vertex -24.8193 81.8184 -120
      vertex -16.6802 83.8571 120
      vertex -24.8193 81.8184 120
    endloop
  endfacet
  facet normal 0.242976 -0.970032 0
    outer loop
      vertex -16.6802 83.8571 120
      vertex -24.8193 81.8184 -120
      vertex -16.6802 83.8571 -120
    endloop
  endfacet
  facet normal -0.803202 -0.595707 0
    outer loop
      vertex 71.0907 47.5013 -120
      vertex 66.0924 54.2406 120
      vertex 66.0924 54.2406 -120
    endloop
  endfacet
  facet normal -0.803202 -0.595707 0
    outer loop
      vertex 66.0924 54.2406 120
      vertex 71.0907 47.5013 -120
      vertex 71.0907 47.5013 120
    endloop
  endfacet
  facet normal -0.049067 -0.998795 0
    outer loop
      vertex 0 85.5 -120
      vertex 8.38046 85.0883 120
      vertex 0 85.5 120
    endloop
  endfacet
  facet normal -0.049067 -0.998795 -0
    outer loop
      vertex 8.38046 85.0883 120
      vertex 0 85.5 -120
      vertex 8.38046 85.0883 -120
    endloop
  endfacet
  facet normal -0.903991 -0.427551 0
    outer loop
      vertex 78.9917 32.7194 -120
      vertex 75.4043 40.3044 120
      vertex 75.4043 40.3044 -120
    endloop
  endfacet
  facet normal -0.903991 -0.427551 0
    outer loop
      vertex 75.4043 40.3044 120
      vertex 78.9917 32.7194 -120
      vertex 78.9917 32.7194 120
    endloop
  endfacet
  facet normal 0.857732 -0.514098 0
    outer loop
      vertex -75.4043 40.3044 120
      vertex -71.0907 47.5013 -120
      vertex -71.0907 47.5013 120
    endloop
  endfacet
  facet normal 0.857732 -0.514098 0
    outer loop
      vertex -71.0907 47.5013 -120
      vertex -75.4043 40.3044 120
      vertex -75.4043 40.3044 -120
    endloop
  endfacet
  facet normal 0.671562 -0.740949 0
    outer loop
      vertex -60.4576 60.4576 -120
      vertex -54.2406 66.0924 120
      vertex -60.4576 60.4576 120
    endloop
  endfacet
  facet normal 0.671562 -0.740949 0
    outer loop
      vertex -54.2406 66.0924 120
      vertex -60.4576 60.4576 -120
      vertex -54.2406 66.0924 -120
    endloop
  endfacet
  facet normal 0.857732 0.514098 0
    outer loop
      vertex -71.0907 -47.5013 120
      vertex -75.4043 -40.3044 -120
      vertex -75.4043 -40.3044 120
    endloop
  endfacet
  facet normal 0.857732 0.514098 0
    outer loop
      vertex -75.4043 -40.3044 -120
      vertex -71.0907 -47.5013 120
      vertex -71.0907 -47.5013 -120
    endloop
  endfacet
  facet normal 0.427551 0.903991 -0
    outer loop
      vertex -32.7194 -78.9917 -120
      vertex -40.3044 -75.4043 120
      vertex -32.7194 -78.9917 120
    endloop
  endfacet
  facet normal 0.427551 0.903991 0
    outer loop
      vertex -40.3044 -75.4043 120
      vertex -32.7194 -78.9917 -120
      vertex -40.3044 -75.4043 -120
    endloop
  endfacet
  facet normal 0.740949 0.671562 0
    outer loop
      vertex -60.4576 -60.4576 120
      vertex -66.0924 -54.2406 -120
      vertex -66.0924 -54.2406 120
    endloop
  endfacet
  facet normal 0.740949 0.671562 0
    outer loop
      vertex -66.0924 -54.2406 -120
      vertex -60.4576 -60.4576 120
      vertex -60.4576 -60.4576 -120
    endloop
  endfacet
  facet normal 0.33689 -0.941544 0
    outer loop
      vertex -32.7194 78.9917 -120
      vertex -24.8193 81.8184 120
      vertex -32.7194 78.9917 120
    endloop
  endfacet
  facet normal 0.33689 -0.941544 0
    outer loop
      vertex -24.8193 81.8184 120
      vertex -32.7194 78.9917 -120
      vertex -24.8193 81.8184 -120
    endloop
  endfacet
  facet normal 0.514098 0.857732 -0
    outer loop
      vertex -40.3044 -75.4043 -120
      vertex -47.5013 -71.0907 120
      vertex -40.3044 -75.4043 120
    endloop
  endfacet
  facet normal 0.514098 0.857732 0
    outer loop
      vertex -47.5013 -71.0907 120
      vertex -40.3044 -75.4043 -120
      vertex -47.5013 -71.0907 -120
    endloop
  endfacet
  facet normal -0.595707 0.803202 0
    outer loop
      vertex 54.2406 -66.0924 -120
      vertex 47.5013 -71.0907 120
      vertex 54.2406 -66.0924 120
    endloop
  endfacet
  facet normal -0.595707 0.803202 0
    outer loop
      vertex 47.5013 -71.0907 120
      vertex 54.2406 -66.0924 -120
      vertex 47.5013 -71.0907 -120
    endloop
  endfacet
  facet normal 0.049067 -0.998795 0
    outer loop
      vertex -8.38046 85.0883 -120
      vertex 0 85.5 120
      vertex -8.38046 85.0883 120
    endloop
  endfacet
  facet normal 0.049067 -0.998795 0
    outer loop
      vertex 0 85.5 120
      vertex -8.38046 85.0883 -120
      vertex 0 85.5 -120
    endloop
  endfacet
  facet normal 0.941544 -0.33689 0
    outer loop
      vertex -81.8184 24.8193 120
      vertex -78.9917 32.7194 -120
      vertex -78.9917 32.7194 120
    endloop
  endfacet
  facet normal 0.941544 -0.33689 0
    outer loop
      vertex -78.9917 32.7194 -120
      vertex -81.8184 24.8193 120
      vertex -81.8184 24.8193 -120
    endloop
  endfacet
  facet normal -0.33689 -0.941544 0
    outer loop
      vertex 24.8193 81.8184 -120
      vertex 32.7194 78.9917 120
      vertex 24.8193 81.8184 120
    endloop
  endfacet
  facet normal -0.33689 -0.941544 -0
    outer loop
      vertex 32.7194 78.9917 120
      vertex 24.8193 81.8184 -120
      vertex 32.7194 78.9917 -120
    endloop
  endfacet
  facet normal 0.803202 0.595707 0
    outer loop
      vertex -66.0924 -54.2406 120
      vertex -71.0907 -47.5013 -120
      vertex -71.0907 -47.5013 120
    endloop
  endfacet
  facet normal 0.803202 0.595707 0
    outer loop
      vertex -71.0907 -47.5013 -120
      vertex -66.0924 -54.2406 120
      vertex -66.0924 -54.2406 -120
    endloop
  endfacet
  facet normal 0.970032 -0.242976 0
    outer loop
      vertex -83.8571 16.6802 120
      vertex -81.8184 24.8193 -120
      vertex -81.8184 24.8193 120
    endloop
  endfacet
  facet normal 0.970032 -0.242976 0
    outer loop
      vertex -81.8184 24.8193 -120
      vertex -83.8571 16.6802 120
      vertex -83.8571 16.6802 -120
    endloop
  endfacet
  facet normal 0.989176 0.146736 0
    outer loop
      vertex -83.8571 -16.6802 120
      vertex -85.0883 -8.38046 -120
      vertex -85.0883 -8.38046 120
    endloop
  endfacet
  facet normal 0.989176 0.146736 0
    outer loop
      vertex -85.0883 -8.38046 -120
      vertex -83.8571 -16.6802 120
      vertex -83.8571 -16.6802 -120
    endloop
  endfacet
  facet normal 0.903991 -0.427551 0
    outer loop
      vertex -78.9917 32.7194 120
      vertex -75.4043 40.3044 -120
      vertex -75.4043 40.3044 120
    endloop
  endfacet
  facet normal 0.903991 -0.427551 0
    outer loop
      vertex -75.4043 40.3044 -120
      vertex -78.9917 32.7194 120
      vertex -78.9917 32.7194 -120
    endloop
  endfacet
  facet normal 0.671562 0.740949 -0
    outer loop
      vertex -54.2406 -66.0924 -120
      vertex -60.4576 -60.4576 120
      vertex -54.2406 -66.0924 120
    endloop
  endfacet
  facet normal 0.671562 0.740949 0
    outer loop
      vertex -60.4576 -60.4576 120
      vertex -54.2406 -66.0924 -120
      vertex -60.4576 -60.4576 -120
    endloop
  endfacet
  facet normal 0.803202 -0.595707 0
    outer loop
      vertex -71.0907 47.5013 120
      vertex -66.0924 54.2406 -120
      vertex -66.0924 54.2406 120
    endloop
  endfacet
  facet normal 0.803202 -0.595707 0
    outer loop
      vertex -66.0924 54.2406 -120
      vertex -71.0907 47.5013 120
      vertex -71.0907 47.5013 -120
    endloop
  endfacet
  facet normal 0.049067 0.998795 -0
    outer loop
      vertex 0 -85.5 -120
      vertex -8.38046 -85.0883 120
      vertex 0 -85.5 120
    endloop
  endfacet
  facet normal 0.049067 0.998795 0
    outer loop
      vertex -8.38046 -85.0883 120
      vertex 0 -85.5 -120
      vertex -8.38046 -85.0883 -120
    endloop
  endfacet
  facet normal 0.146736 0.989176 -0
    outer loop
      vertex -8.38046 -85.0883 -120
      vertex -16.6802 -83.8571 120
      vertex -8.38046 -85.0883 120
    endloop
  endfacet
  facet normal 0.146736 0.989176 0
    outer loop
      vertex -16.6802 -83.8571 120
      vertex -8.38046 -85.0883 -120
      vertex -16.6802 -83.8571 -120
    endloop
  endfacet
  facet normal 0.989176 -0.146736 0
    outer loop
      vertex -85.0883 8.38046 120
      vertex -83.8571 16.6802 -120
      vertex -83.8571 16.6802 120
    endloop
  endfacet
  facet normal 0.989176 -0.146736 0
    outer loop
      vertex -83.8571 16.6802 -120
      vertex -85.0883 8.38046 120
      vertex -85.0883 8.38046 -120
    endloop
  endfacet
  facet normal 0.998795 -0.049067 0
    outer loop
      vertex -85.5 0 120
      vertex -85.0883 8.38046 -120
      vertex -85.0883 8.38046 120
    endloop
  endfacet
  facet normal 0.998795 -0.049067 0
    outer loop
      vertex -85.0883 8.38046 -120
      vertex -85.5 0 120
      vertex -85.5 0 -120
    endloop
  endfacet
  facet normal 0.33689 0.941544 -0
    outer loop
      vertex -24.8193 -81.8184 -120
      vertex -32.7194 -78.9917 120
      vertex -24.8193 -81.8184 120
    endloop
  endfacet
  facet normal 0.33689 0.941544 0
    outer loop
      vertex -32.7194 -78.9917 120
      vertex -24.8193 -81.8184 -120
      vertex -32.7194 -78.9917 -120
    endloop
  endfacet
  facet normal -0.671562 0.740949 0
    outer loop
      vertex 60.4576 -60.4576 -120
      vertex 54.2406 -66.0924 120
      vertex 60.4576 -60.4576 120
    endloop
  endfacet
  facet normal -0.671562 0.740949 0
    outer loop
      vertex 54.2406 -66.0924 120
      vertex 60.4576 -60.4576 -120
      vertex 54.2406 -66.0924 -120
    endloop
  endfacet
  facet normal 1 -0 0
    outer loop
      vertex 21 -21 210
      vertex 21 21 -210
      vertex 21 21 210
    endloop
  endfacet
  facet normal 1 0 0
    outer loop
      vertex 21 21 -210
      vertex 21 -21 210
      vertex 21 -21 -210
    endloop
  endfacet
  facet normal -0 0 1
    outer loop
      vertex -21 21 210
      vertex 21 -21 210
      vertex 21 21 210
    endloop
  endfacet
  facet normal 0 0 1
    outer loop
      vertex 21 -21 210
      vertex -21 21 210
      vertex -21 -21 210
    endloop
  endfacet
  facet normal 0 0 -1
    outer loop
      vertex -21 -21 -210
      vertex 21 21 -210
      vertex 21 -21 -210
    endloop
  endfacet
  facet normal -0 0 -1
    outer loop
      vertex 21 21 -210
      vertex -21 -21 -210
      vertex -21 21 -210
    endloop
  endfacet
  facet normal -1 0 0
    outer loop
      vertex -21 -21 -210
      vertex -21 21 210
      vertex -21 21 -210
    endloop
  endfacet
  facet normal -1 -0 0
    outer loop
      vertex -21 21 210
      vertex -21 -21 -210
      vertex -21 -21 210
    endloop
  endfacet
  facet normal 0 1 -0
    outer loop
      vertex 21 21 -210
      vertex -21 21 210
      vertex 21 21 210
    endloop
  endfacet
  facet normal 0 1 0
    outer loop
      vertex -21 21 210
      vertex 21 21 -210
      vertex -21 21 -210
    endloop
  endfacet
  facet normal 0 -1 0
    outer loop
      vertex -21 -21 -210
      vertex 21 -21 210
      vertex -21 -21 210
    endloop
  endfacet
  facet normal 0 -1 -0
    outer loop
      vertex 21 -21 210
      vertex -21 -21 -210
      vertex 21 -21 -210
    endloop
  endfacet
endsolid OpenSCAD_Model
