solid Cervical_Vertebra_V1
  facet normal 0 0 1
    outer loop
      vertex -15.000000 -15.000000 10.000000
      vertex 15.000000 -15.000000 10.000000
      vertex 15.000000 15.000000 10.000000
    endloop
  endfacet
  facet normal 0 0 1
    outer loop
      vertex -15.000000 -15.000000 10.000000
      vertex 15.000000 15.000000 10.000000
      vertex -15.000000 15.000000 10.000000
    endloop
  endfacet
  facet normal 0 0 -1
    outer loop
      vertex -15.000000 -15.000000 -10.000000
      vertex 15.000000 15.000000 -10.000000
      vertex 15.000000 -15.000000 -10.000000
    endloop
  endfacet
  facet normal 0 0 -1
    outer loop
      vertex -15.000000 -15.000000 -10.000000
      vertex -15.000000 15.000000 -10.000000
      vertex 15.000000 15.000000 -10.000000
    endloop
  endfacet
  facet normal 1 0 0
    outer loop
      vertex 15.000000 -15.000000 -10.000000
      vertex 15.000000 15.000000 10.000000
      vertex 15.000000 -15.000000 10.000000
    endloop
  endfacet
  facet normal 1 0 0
    outer loop
      vertex 15.000000 -15.000000 -10.000000
      vertex 15.000000 15.000000 -10.000000
      vertex 15.000000 15.000000 10.000000
    endloop
  endfacet
  facet normal -1 0 0
    outer loop
      vertex -15.000000 -15.000000 -10.000000
      vertex -15.000000 -15.000000 10.000000
      vertex -15.000000 15.000000 10.000000
    endloop
  endfacet
  facet normal -1 0 0
    outer loop
      vertex -15.000000 -15.000000 -10.000000
      vertex -15.000000 15.000000 10.000000
      vertex -15.000000 15.000000 -10.000000
    endloop
  endfacet
  facet normal 0 1 0
    outer loop
      vertex -15.000000 15.000000 -10.000000
      vertex 15.000000 15.000000 10.000000
      vertex 15.000000 15.000000 -10.000000
    endloop
  endfacet
  facet normal 0 1 0
    outer loop
      vertex -15.000000 15.000000 -10.000000
      vertex -15.000000 15.000000 10.000000
      vertex 15.000000 15.000000 10.000000
    endloop
  endfacet
  facet normal 0 -1 0
    outer loop
      vertex -15.000000 -15.000000 -10.000000
      vertex 15.000000 -15.000000 -10.000000
      vertex 15.000000 -15.000000 10.000000
    endloop
  endfacet
  facet normal 0 -1 0
    outer loop
      vertex -15.000000 -15.000000 -10.000000
      vertex 15.000000 -15.000000 10.000000
      vertex -15.000000 -15.000000 10.000000
    endloop
  endfacet
  facet normal 0 0 1
    outer loop
      vertex -5.000000 -5.000000 12.000000
      vertex 5.000000 -5.000000 12.000000
      vertex 5.000000 5.000000 12.000000
    endloop
  endfacet
  facet normal 0 0 1
    outer loop
      vertex -5.000000 -5.000000 12.000000
      vertex 5.000000 5.000000 12.000000
      vertex -5.000000 5.000000 12.000000
    endloop
  endfacet
  facet normal 0 0 -1
    outer loop
      vertex -5.000000 -5.000000 10.000000
      vertex 5.000000 5.000000 10.000000
      vertex 5.000000 -5.000000 10.000000
    endloop
  endfacet
  facet normal 0 0 -1
    outer loop
      vertex -5.000000 -5.000000 10.000000
      vertex -5.000000 5.000000 10.000000
      vertex 5.000000 5.000000 10.000000
    endloop
  endfacet
  facet normal 1 0 0
    outer loop
      vertex 5.000000 -5.000000 10.000000
      vertex 5.000000 5.000000 12.000000
      vertex 5.000000 -5.000000 12.000000
    endloop
  endfacet
  facet normal 1 0 0
    outer loop
      vertex 5.000000 -5.000000 10.000000
      vertex 5.000000 5.000000 10.000000
      vertex 5.000000 5.000000 12.000000
    endloop
  endfacet
  facet normal -1 0 0
    outer loop
      vertex -5.000000 -5.000000 10.000000
      vertex -5.000000 -5.000000 12.000000
      vertex -5.000000 5.000000 12.000000
    endloop
  endfacet
  facet normal -1 0 0
    outer loop
      vertex -5.000000 -5.000000 10.000000
      vertex -5.000000 5.000000 12.000000
      vertex -5.000000 5.000000 10.000000
    endloop
  endfacet
  facet normal 0 1 0
    outer loop
      vertex -5.000000 5.000000 10.000000
      vertex 5.000000 5.000000 12.000000
      vertex 5.000000 5.000000 10.000000
    endloop
  endfacet
  facet normal 0 1 0
    outer loop
      vertex -5.000000 5.000000 10.000000
      vertex -5.000000 5.000000 12.000000
      vertex 5.000000 5.000000 12.000000
    endloop
  endfacet
  facet normal 0 -1 0
    outer loop
      vertex -5.000000 -5.000000 10.000000
      vertex 5.000000 -5.000000 10.000000
      vertex 5.000000 -5.000000 12.000000
    endloop
  endfacet
  facet normal 0 -1 0
    outer loop
      vertex -5.000000 -5.000000 10.000000
      vertex 5.000000 -5.000000 12.000000
      vertex -5.000000 -5.000000 12.000000
    endloop
  endfacet
  facet normal 0.707107 0 0.707107
    outer loop
      vertex 0.000000 -8.000000 18.000000
      vertex 8.000000 0.000000 10.000000
      vertex 0.000000 8.000000 18.000000
    endloop
  endfacet
  facet normal 0 0.707107 0.707107
    outer loop
      vertex -8.000000 0.000000 10.000000
      vertex 0.000000 8.000000 18.000000
      vertex 8.000000 0.000000 10.000000
    endloop
  endfacet
  facet normal -0.707107 0 0.707107
    outer loop
      vertex -8.000000 0.000000 10.000000
      vertex 0.000000 -8.000000 18.000000
      vertex 0.000000 8.000000 18.000000
    endloop
  endfacet
  facet normal 0 -0.707107 0.707107
    outer loop
      vertex -8.000000 0.000000 10.000000
      vertex 8.000000 0.000000 10.000000
      vertex 0.000000 -8.000000 18.000000
    endloop
  endfacet
endsolid Cervical_Vertebra_V1
