solid LumbarVertebra06
  facet normal 0 0 1
    outer loop
      vertex -20.0 -17.5 10.0
      vertex 20.0 -17.5 10.0
      vertex 20.0 17.5 10.0
    endloop
  endfacet
  facet normal 0 0 1
    outer loop
      vertex -20.0 -17.5 10.0
      vertex 20.0 17.5 10.0
      vertex -20.0 17.5 10.0
    endloop
  endfacet
  facet normal 0 0 -1
    outer loop
      vertex -20.0 -17.5 -10.0
      vertex 20.0 17.5 -10.0
      vertex 20.0 -17.5 -10.0
    endloop
  endfacet
  facet normal 0 0 -1
    outer loop
      vertex -20.0 -17.5 -10.0
      vertex -20.0 17.5 -10.0
      vertex 20.0 17.5 -10.0
    endloop
  endfacet
  facet normal 1 0 0
    outer loop
      vertex 20.0 -17.5 -10.0
      vertex 20.0 17.5 10.0
      vertex 20.0 -17.5 10.0
    endloop
  endfacet
  facet normal 1 0 0
    outer loop
      vertex 20.0 -17.5 -10.0
      vertex 20.0 17.5 -10.0
      vertex 20.0 17.5 10.0
    endloop
  endfacet
  facet normal -1 0 0
    outer loop
      vertex -20.0 -17.5 -10.0
      vertex -20.0 -17.5 10.0
      vertex -20.0 17.5 10.0
    endloop
  endfacet
  facet normal -1 0 0
    outer loop
      vertex -20.0 -17.5 -10.0
      vertex -20.0 17.5 10.0
      vertex -20.0 17.5 -10.0
    endloop
  endfacet
  facet normal 0 1 0
    outer loop
      vertex -20.0 17.5 -10.0
      vertex 20.0 17.5 10.0
      vertex 20.0 17.5 -10.0
    endloop
  endfacet
  facet normal 0 1 0
    outer loop
      vertex -20.0 17.5 -10.0
      vertex -20.0 17.5 10.0
      vertex 20.0 17.5 10.0
    endloop
  endfacet
  facet normal 0 -1 0
    outer loop
      vertex -20.0 -17.5 -10.0
      vertex 20.0 -17.5 -10.0
      vertex 20.0 -17.5 10.0
    endloop
  endfacet
  facet normal 0 -1 0
    outer loop
      vertex -20.0 -17.5 -10.0
      vertex 20.0 -17.5 10.0
      vertex -20.0 -17.5 10.0
    endloop
  endfacet
  // Connector hole (top)
  facet normal 0 0 1
    outer loop
      vertex -6.0 -6.0 10.0
      vertex 6.0 -6.0 10.0
      vertex 6.0 6.0 10.0
    endloop
  endfacet
  facet normal 0 0 1
    outer loop
      vertex -6.0 -6.0 10.0
      vertex 6.0 6.0 10.0
      vertex -6.0 6.0 10.0
    endloop
  endfacet
  // Connector hole (bottom)
  facet normal 0 0 -1
    outer loop
      vertex -6.0 -6.0 -10.0
      vertex 6.0 6.0 -10.0
      vertex 6.0 -6.0 -10.0
    endloop
  endfacet
  facet normal 0 0 -1
    outer loop
      vertex -6.0 -6.0 -10.0
      vertex -6.0 6.0 -10.0
      vertex 6.0 6.0 -10.0
    endloop
  endfacet
endsolid LumbarVertebra06
