solid ThoracicVertebra07
  facet normal 0 0 1
    outer loop
      vertex -17.5 -15.0 10.0
      vertex 17.5 -15.0 10.0
      vertex 17.5 15.0 10.0
    endloop
  endfacet
  facet normal 0 0 1
    outer loop
      vertex -17.5 -15.0 10.0
      vertex 17.5 15.0 10.0
      vertex -17.5 15.0 10.0
    endloop
  endfacet
  facet normal 0 0 -1
    outer loop
      vertex -17.5 -15.0 -10.0
      vertex 17.5 15.0 -10.0
      vertex 17.5 -15.0 -10.0
    endloop
  endfacet
  facet normal 0 0 -1
    outer loop
      vertex -17.5 -15.0 -10.0
      vertex -17.5 15.0 -10.0
      vertex 17.5 15.0 -10.0
    endloop
  endfacet
  facet normal 1 0 0
    outer loop
      vertex 17.5 -15.0 -10.0
      vertex 17.5 15.0 10.0
      vertex 17.5 -15.0 10.0
    endloop
  endfacet
  facet normal 1 0 0
    outer loop
      vertex 17.5 -15.0 -10.0
      vertex 17.5 15.0 -10.0
      vertex 17.5 15.0 10.0
    endloop
  endfacet
  facet normal -1 0 0
    outer loop
      vertex -17.5 -15.0 -10.0
      vertex -17.5 -15.0 10.0
      vertex -17.5 15.0 10.0
    endloop
  endfacet
  facet normal -1 0 0
    outer loop
      vertex -17.5 -15.0 -10.0
      vertex -17.5 15.0 10.0
      vertex -17.5 15.0 -10.0
    endloop
  endfacet
  facet normal 0 1 0
    outer loop
      vertex -17.5 15.0 -10.0
      vertex 17.5 15.0 10.0
      vertex 17.5 15.0 -10.0
    endloop
  endfacet
  facet normal 0 1 0
    outer loop
      vertex -17.5 15.0 -10.0
      vertex -17.5 15.0 10.0
      vertex 17.5 15.0 10.0
    endloop
  endfacet
  facet normal 0 -1 0
    outer loop
      vertex -17.5 -15.0 -10.0
      vertex 17.5 -15.0 -10.0
      vertex 17.5 -15.0 10.0
    endloop
  endfacet
  facet normal 0 -1 0
    outer loop
      vertex -17.5 -15.0 -10.0
      vertex 17.5 -15.0 10.0
      vertex -17.5 -15.0 10.0
    endloop
  endfacet
  // Connector hole (top)
  facet normal 0 0 1
    outer loop
      vertex -5.0 -5.0 10.0
      vertex 5.0 -5.0 10.0
      vertex 5.0 5.0 10.0
    endloop
  endfacet
  facet normal 0 0 1
    outer loop
      vertex -5.0 -5.0 10.0
      vertex 5.0 5.0 10.0
      vertex -5.0 5.0 10.0
    endloop
  endfacet
  // Connector hole (bottom)
  facet normal 0 0 -1
    outer loop
      vertex -5.0 -5.0 -10.0
      vertex 5.0 5.0 -10.0
      vertex 5.0 -5.0 -10.0
    endloop
  endfacet
  facet normal 0 0 -1
    outer loop
      vertex -5.0 -5.0 -10.0
      vertex -5.0 5.0 -10.0
      vertex 5.0 5.0 -10.0
    endloop
  endfacet
endsolid ThoracicVertebra07
